M48
; DRILL file {KiCad 6.0.9+dfsg-1} date Mon 26 Dec 2022 11:17:43 PM UTC
; FORMAT={-:-/ absolute / metric / decimal}
; #@! TF.CreationDate,2022-12-26T23:17:43+00:00
; #@! TF.GenerationSoftware,Kicad,Pcbnew,6.0.9+dfsg-1
; #@! TF.FileFunction,Plated,1,2,PTH
FMAT,2
METRIC
; #@! TA.AperFunction,Plated,PTH,ViaDrill
T1C0.400
; #@! TA.AperFunction,Plated,PTH,ComponentDrill
T2C0.600
; #@! TA.AperFunction,Plated,PTH,ComponentDrill
T3C1.000
%
G90
G05
T1
X85.979Y-89.662
X85.979Y-90.805
X85.979Y-96.647
X85.979Y-97.79
X91.567Y-93.32
X91.592Y-89.154
X91.592Y-90.83
X91.592Y-95.809
X91.592Y-97.434
X91.592Y-99.06
X96.266Y-93.32
T3
X100.574Y-84.42
X100.574Y-86.96
X100.574Y-89.5
X100.574Y-92.04
X100.574Y-94.58
X100.574Y-97.12
X103.114Y-84.42
X103.114Y-86.96
X103.114Y-89.5
X103.114Y-92.04
X103.114Y-94.58
X103.114Y-97.12
T2
X79.69Y-89.482G85X79.09Y-89.482
G05
X79.69Y-98.122G85X79.09Y-98.122
G05
X84.12Y-89.482G85X83.02Y-89.482
G05
X84.12Y-98.122G85X83.02Y-98.122
G05
T0
M30
