%TF.GenerationSoftware,KiCad,Pcbnew,6.0.9+dfsg-1*%
%TF.CreationDate,2022-12-26T23:17:44+00:00*%
%TF.ProjectId,PMOD-USB-Device,504d4f44-2d55-4534-922d-446576696365,1*%
%TF.SameCoordinates,Original*%
%TF.FileFunction,Drillmap*%
%TF.FilePolarity,Positive*%
%FSLAX45Y45*%
G04 Gerber Fmt 4.5, Leading zero omitted, Abs format (unit mm)*
G04 Created by KiCad (PCBNEW 6.0.9+dfsg-1) date 2022-12-26 23:17:44*
%MOMM*%
%LPD*%
G01*
G04 APERTURE LIST*
%ADD10C,0.100000*%
%ADD11C,0.200000*%
%ADD12C,0.065000*%
G04 APERTURE END LIST*
D10*
X10300000Y-8150000D02*
X8000000Y-8150000D01*
X8000000Y-10000000D02*
X10300000Y-10000000D01*
X8000000Y-8150000D02*
G75*
G03*
X7800000Y-8350000I0J-200000D01*
G01*
X7800000Y-8350000D02*
X7800000Y-9800000D01*
X10500000Y-9800000D02*
X10500000Y-8350000D01*
X7800000Y-9800000D02*
G75*
G03*
X8000000Y-10000000I200000J0D01*
G01*
X10500000Y-8350000D02*
G75*
G03*
X10300000Y-8150000I-200000J0D01*
G01*
X10300000Y-10000000D02*
G75*
G03*
X10500000Y-9800000I0J200000D01*
G01*
D11*
D12*
X8271500Y-9058720D02*
X8336500Y-9123720D01*
X8336500Y-9058720D02*
X8271500Y-9123720D01*
X8271500Y-9636720D02*
X8336500Y-9701720D01*
X8336500Y-9636720D02*
X8271500Y-9701720D01*
D11*
X8052619Y-10315476D02*
X8052619Y-10115476D01*
X8100238Y-10115476D01*
X8128809Y-10125000D01*
X8147857Y-10144048D01*
X8157381Y-10163095D01*
X8166905Y-10201190D01*
X8166905Y-10229762D01*
X8157381Y-10267857D01*
X8147857Y-10286905D01*
X8128809Y-10305952D01*
X8100238Y-10315476D01*
X8052619Y-10315476D01*
X8252619Y-10315476D02*
X8252619Y-10182143D01*
X8252619Y-10220238D02*
X8262143Y-10201190D01*
X8271667Y-10191667D01*
X8290714Y-10182143D01*
X8309762Y-10182143D01*
X8376428Y-10315476D02*
X8376428Y-10182143D01*
X8376428Y-10115476D02*
X8366905Y-10125000D01*
X8376428Y-10134524D01*
X8385952Y-10125000D01*
X8376428Y-10115476D01*
X8376428Y-10134524D01*
X8500238Y-10315476D02*
X8481190Y-10305952D01*
X8471667Y-10286905D01*
X8471667Y-10115476D01*
X8605000Y-10315476D02*
X8585952Y-10305952D01*
X8576429Y-10286905D01*
X8576429Y-10115476D01*
X8833571Y-10315476D02*
X8833571Y-10115476D01*
X8900238Y-10258333D01*
X8966905Y-10115476D01*
X8966905Y-10315476D01*
X9147857Y-10315476D02*
X9147857Y-10210714D01*
X9138333Y-10191667D01*
X9119286Y-10182143D01*
X9081190Y-10182143D01*
X9062143Y-10191667D01*
X9147857Y-10305952D02*
X9128810Y-10315476D01*
X9081190Y-10315476D01*
X9062143Y-10305952D01*
X9052619Y-10286905D01*
X9052619Y-10267857D01*
X9062143Y-10248810D01*
X9081190Y-10239286D01*
X9128810Y-10239286D01*
X9147857Y-10229762D01*
X9243095Y-10182143D02*
X9243095Y-10382143D01*
X9243095Y-10191667D02*
X9262143Y-10182143D01*
X9300238Y-10182143D01*
X9319286Y-10191667D01*
X9328810Y-10201190D01*
X9338333Y-10220238D01*
X9338333Y-10277381D01*
X9328810Y-10296429D01*
X9319286Y-10305952D01*
X9300238Y-10315476D01*
X9262143Y-10315476D01*
X9243095Y-10305952D01*
X9424048Y-10296429D02*
X9433571Y-10305952D01*
X9424048Y-10315476D01*
X9414524Y-10305952D01*
X9424048Y-10296429D01*
X9424048Y-10315476D01*
X9424048Y-10191667D02*
X9433571Y-10201190D01*
X9424048Y-10210714D01*
X9414524Y-10201190D01*
X9424048Y-10191667D01*
X9424048Y-10210714D01*
D12*
X7730000Y-10612500D02*
X7795000Y-10677500D01*
X7795000Y-10612500D02*
X7730000Y-10677500D01*
D11*
X8090714Y-10535476D02*
X8109762Y-10535476D01*
X8128809Y-10545000D01*
X8138333Y-10554524D01*
X8147857Y-10573571D01*
X8157381Y-10611667D01*
X8157381Y-10659286D01*
X8147857Y-10697381D01*
X8138333Y-10716429D01*
X8128809Y-10725952D01*
X8109762Y-10735476D01*
X8090714Y-10735476D01*
X8071667Y-10725952D01*
X8062143Y-10716429D01*
X8052619Y-10697381D01*
X8043095Y-10659286D01*
X8043095Y-10611667D01*
X8052619Y-10573571D01*
X8062143Y-10554524D01*
X8071667Y-10545000D01*
X8090714Y-10535476D01*
X8243095Y-10716429D02*
X8252619Y-10725952D01*
X8243095Y-10735476D01*
X8233571Y-10725952D01*
X8243095Y-10716429D01*
X8243095Y-10735476D01*
X8424048Y-10535476D02*
X8385952Y-10535476D01*
X8366905Y-10545000D01*
X8357381Y-10554524D01*
X8338333Y-10583095D01*
X8328809Y-10621190D01*
X8328809Y-10697381D01*
X8338333Y-10716429D01*
X8347857Y-10725952D01*
X8366905Y-10735476D01*
X8405000Y-10735476D01*
X8424048Y-10725952D01*
X8433571Y-10716429D01*
X8443095Y-10697381D01*
X8443095Y-10649762D01*
X8433571Y-10630714D01*
X8424048Y-10621190D01*
X8405000Y-10611667D01*
X8366905Y-10611667D01*
X8347857Y-10621190D01*
X8338333Y-10630714D01*
X8328809Y-10649762D01*
X8624048Y-10535476D02*
X8528810Y-10535476D01*
X8519286Y-10630714D01*
X8528810Y-10621190D01*
X8547857Y-10611667D01*
X8595476Y-10611667D01*
X8614524Y-10621190D01*
X8624048Y-10630714D01*
X8633571Y-10649762D01*
X8633571Y-10697381D01*
X8624048Y-10716429D01*
X8614524Y-10725952D01*
X8595476Y-10735476D01*
X8547857Y-10735476D01*
X8528810Y-10725952D01*
X8519286Y-10716429D01*
X8757381Y-10535476D02*
X8776429Y-10535476D01*
X8795476Y-10545000D01*
X8805000Y-10554524D01*
X8814524Y-10573571D01*
X8824048Y-10611667D01*
X8824048Y-10659286D01*
X8814524Y-10697381D01*
X8805000Y-10716429D01*
X8795476Y-10725952D01*
X8776429Y-10735476D01*
X8757381Y-10735476D01*
X8738333Y-10725952D01*
X8728810Y-10716429D01*
X8719286Y-10697381D01*
X8709762Y-10659286D01*
X8709762Y-10611667D01*
X8719286Y-10573571D01*
X8728810Y-10554524D01*
X8738333Y-10545000D01*
X8757381Y-10535476D01*
X8909762Y-10735476D02*
X8909762Y-10602143D01*
X8909762Y-10621190D02*
X8919286Y-10611667D01*
X8938333Y-10602143D01*
X8966905Y-10602143D01*
X8985952Y-10611667D01*
X8995476Y-10630714D01*
X8995476Y-10735476D01*
X8995476Y-10630714D02*
X9005000Y-10611667D01*
X9024048Y-10602143D01*
X9052619Y-10602143D01*
X9071667Y-10611667D01*
X9081190Y-10630714D01*
X9081190Y-10735476D01*
X9176429Y-10735476D02*
X9176429Y-10602143D01*
X9176429Y-10621190D02*
X9185952Y-10611667D01*
X9205000Y-10602143D01*
X9233571Y-10602143D01*
X9252619Y-10611667D01*
X9262143Y-10630714D01*
X9262143Y-10735476D01*
X9262143Y-10630714D02*
X9271667Y-10611667D01*
X9290714Y-10602143D01*
X9319286Y-10602143D01*
X9338333Y-10611667D01*
X9347857Y-10630714D01*
X9347857Y-10735476D01*
X9738333Y-10525952D02*
X9566905Y-10783095D01*
X9995476Y-10535476D02*
X10014524Y-10535476D01*
X10033571Y-10545000D01*
X10043095Y-10554524D01*
X10052619Y-10573571D01*
X10062143Y-10611667D01*
X10062143Y-10659286D01*
X10052619Y-10697381D01*
X10043095Y-10716429D01*
X10033571Y-10725952D01*
X10014524Y-10735476D01*
X9995476Y-10735476D01*
X9976429Y-10725952D01*
X9966905Y-10716429D01*
X9957381Y-10697381D01*
X9947857Y-10659286D01*
X9947857Y-10611667D01*
X9957381Y-10573571D01*
X9966905Y-10554524D01*
X9976429Y-10545000D01*
X9995476Y-10535476D01*
X10147857Y-10716429D02*
X10157381Y-10725952D01*
X10147857Y-10735476D01*
X10138333Y-10725952D01*
X10147857Y-10716429D01*
X10147857Y-10735476D01*
X10281190Y-10535476D02*
X10300238Y-10535476D01*
X10319286Y-10545000D01*
X10328810Y-10554524D01*
X10338333Y-10573571D01*
X10347857Y-10611667D01*
X10347857Y-10659286D01*
X10338333Y-10697381D01*
X10328810Y-10716429D01*
X10319286Y-10725952D01*
X10300238Y-10735476D01*
X10281190Y-10735476D01*
X10262143Y-10725952D01*
X10252619Y-10716429D01*
X10243095Y-10697381D01*
X10233571Y-10659286D01*
X10233571Y-10611667D01*
X10243095Y-10573571D01*
X10252619Y-10554524D01*
X10262143Y-10545000D01*
X10281190Y-10535476D01*
X10424048Y-10554524D02*
X10433571Y-10545000D01*
X10452619Y-10535476D01*
X10500238Y-10535476D01*
X10519286Y-10545000D01*
X10528810Y-10554524D01*
X10538333Y-10573571D01*
X10538333Y-10592619D01*
X10528810Y-10621190D01*
X10414524Y-10735476D01*
X10538333Y-10735476D01*
X10719286Y-10535476D02*
X10624048Y-10535476D01*
X10614524Y-10630714D01*
X10624048Y-10621190D01*
X10643095Y-10611667D01*
X10690714Y-10611667D01*
X10709762Y-10621190D01*
X10719286Y-10630714D01*
X10728810Y-10649762D01*
X10728810Y-10697381D01*
X10719286Y-10716429D01*
X10709762Y-10725952D01*
X10690714Y-10735476D01*
X10643095Y-10735476D01*
X10624048Y-10725952D01*
X10614524Y-10716429D01*
X10900238Y-10535476D02*
X10862143Y-10535476D01*
X10843095Y-10545000D01*
X10833571Y-10554524D01*
X10814524Y-10583095D01*
X10805000Y-10621190D01*
X10805000Y-10697381D01*
X10814524Y-10716429D01*
X10824048Y-10725952D01*
X10843095Y-10735476D01*
X10881190Y-10735476D01*
X10900238Y-10725952D01*
X10909762Y-10716429D01*
X10919286Y-10697381D01*
X10919286Y-10649762D01*
X10909762Y-10630714D01*
X10900238Y-10621190D01*
X10881190Y-10611667D01*
X10843095Y-10611667D01*
X10824048Y-10621190D01*
X10814524Y-10630714D01*
X10805000Y-10649762D01*
X10995476Y-10535476D02*
X10995476Y-10573571D01*
X11071667Y-10535476D02*
X11071667Y-10573571D01*
X11366905Y-10811667D02*
X11357381Y-10802143D01*
X11338333Y-10773571D01*
X11328809Y-10754524D01*
X11319286Y-10725952D01*
X11309762Y-10678333D01*
X11309762Y-10640238D01*
X11319286Y-10592619D01*
X11328809Y-10564048D01*
X11338333Y-10545000D01*
X11357381Y-10516429D01*
X11366905Y-10506905D01*
X11433571Y-10554524D02*
X11443095Y-10545000D01*
X11462143Y-10535476D01*
X11509762Y-10535476D01*
X11528809Y-10545000D01*
X11538333Y-10554524D01*
X11547857Y-10573571D01*
X11547857Y-10592619D01*
X11538333Y-10621190D01*
X11424048Y-10735476D01*
X11547857Y-10735476D01*
X11785952Y-10735476D02*
X11785952Y-10535476D01*
X11871667Y-10735476D02*
X11871667Y-10630714D01*
X11862143Y-10611667D01*
X11843095Y-10602143D01*
X11814524Y-10602143D01*
X11795476Y-10611667D01*
X11785952Y-10621190D01*
X11995476Y-10735476D02*
X11976428Y-10725952D01*
X11966905Y-10716429D01*
X11957381Y-10697381D01*
X11957381Y-10640238D01*
X11966905Y-10621190D01*
X11976428Y-10611667D01*
X11995476Y-10602143D01*
X12024048Y-10602143D01*
X12043095Y-10611667D01*
X12052619Y-10621190D01*
X12062143Y-10640238D01*
X12062143Y-10697381D01*
X12052619Y-10716429D01*
X12043095Y-10725952D01*
X12024048Y-10735476D01*
X11995476Y-10735476D01*
X12176428Y-10735476D02*
X12157381Y-10725952D01*
X12147857Y-10706905D01*
X12147857Y-10535476D01*
X12328809Y-10725952D02*
X12309762Y-10735476D01*
X12271667Y-10735476D01*
X12252619Y-10725952D01*
X12243095Y-10706905D01*
X12243095Y-10630714D01*
X12252619Y-10611667D01*
X12271667Y-10602143D01*
X12309762Y-10602143D01*
X12328809Y-10611667D01*
X12338333Y-10630714D01*
X12338333Y-10649762D01*
X12243095Y-10668810D01*
X12414524Y-10725952D02*
X12433571Y-10735476D01*
X12471667Y-10735476D01*
X12490714Y-10725952D01*
X12500238Y-10706905D01*
X12500238Y-10697381D01*
X12490714Y-10678333D01*
X12471667Y-10668810D01*
X12443095Y-10668810D01*
X12424048Y-10659286D01*
X12414524Y-10640238D01*
X12414524Y-10630714D01*
X12424048Y-10611667D01*
X12443095Y-10602143D01*
X12471667Y-10602143D01*
X12490714Y-10611667D01*
X12566905Y-10811667D02*
X12576428Y-10802143D01*
X12595476Y-10773571D01*
X12605000Y-10754524D01*
X12614524Y-10725952D01*
X12624048Y-10678333D01*
X12624048Y-10640238D01*
X12614524Y-10592619D01*
X12605000Y-10564048D01*
X12595476Y-10545000D01*
X12576428Y-10516429D01*
X12566905Y-10506905D01*
X12928809Y-10811667D02*
X12919286Y-10802143D01*
X12900238Y-10773571D01*
X12890714Y-10754524D01*
X12881190Y-10725952D01*
X12871667Y-10678333D01*
X12871667Y-10640238D01*
X12881190Y-10592619D01*
X12890714Y-10564048D01*
X12900238Y-10545000D01*
X12919286Y-10516429D01*
X12928809Y-10506905D01*
X13005000Y-10602143D02*
X13005000Y-10735476D01*
X13005000Y-10621190D02*
X13014524Y-10611667D01*
X13033571Y-10602143D01*
X13062143Y-10602143D01*
X13081190Y-10611667D01*
X13090714Y-10630714D01*
X13090714Y-10735476D01*
X13214524Y-10735476D02*
X13195476Y-10725952D01*
X13185952Y-10716429D01*
X13176428Y-10697381D01*
X13176428Y-10640238D01*
X13185952Y-10621190D01*
X13195476Y-10611667D01*
X13214524Y-10602143D01*
X13243095Y-10602143D01*
X13262143Y-10611667D01*
X13271667Y-10621190D01*
X13281190Y-10640238D01*
X13281190Y-10697381D01*
X13271667Y-10716429D01*
X13262143Y-10725952D01*
X13243095Y-10735476D01*
X13214524Y-10735476D01*
X13338333Y-10602143D02*
X13414524Y-10602143D01*
X13366905Y-10535476D02*
X13366905Y-10706905D01*
X13376428Y-10725952D01*
X13395476Y-10735476D01*
X13414524Y-10735476D01*
X13633571Y-10602143D02*
X13633571Y-10802143D01*
X13633571Y-10611667D02*
X13652619Y-10602143D01*
X13690714Y-10602143D01*
X13709762Y-10611667D01*
X13719286Y-10621190D01*
X13728809Y-10640238D01*
X13728809Y-10697381D01*
X13719286Y-10716429D01*
X13709762Y-10725952D01*
X13690714Y-10735476D01*
X13652619Y-10735476D01*
X13633571Y-10725952D01*
X13843095Y-10735476D02*
X13824048Y-10725952D01*
X13814524Y-10706905D01*
X13814524Y-10535476D01*
X14005000Y-10735476D02*
X14005000Y-10630714D01*
X13995476Y-10611667D01*
X13976428Y-10602143D01*
X13938333Y-10602143D01*
X13919286Y-10611667D01*
X14005000Y-10725952D02*
X13985952Y-10735476D01*
X13938333Y-10735476D01*
X13919286Y-10725952D01*
X13909762Y-10706905D01*
X13909762Y-10687857D01*
X13919286Y-10668810D01*
X13938333Y-10659286D01*
X13985952Y-10659286D01*
X14005000Y-10649762D01*
X14071667Y-10602143D02*
X14147857Y-10602143D01*
X14100238Y-10535476D02*
X14100238Y-10706905D01*
X14109762Y-10725952D01*
X14128809Y-10735476D01*
X14147857Y-10735476D01*
X14290714Y-10725952D02*
X14271667Y-10735476D01*
X14233571Y-10735476D01*
X14214524Y-10725952D01*
X14205000Y-10706905D01*
X14205000Y-10630714D01*
X14214524Y-10611667D01*
X14233571Y-10602143D01*
X14271667Y-10602143D01*
X14290714Y-10611667D01*
X14300238Y-10630714D01*
X14300238Y-10649762D01*
X14205000Y-10668810D01*
X14471667Y-10735476D02*
X14471667Y-10535476D01*
X14471667Y-10725952D02*
X14452619Y-10735476D01*
X14414524Y-10735476D01*
X14395476Y-10725952D01*
X14385952Y-10716429D01*
X14376428Y-10697381D01*
X14376428Y-10640238D01*
X14385952Y-10621190D01*
X14395476Y-10611667D01*
X14414524Y-10602143D01*
X14452619Y-10602143D01*
X14471667Y-10611667D01*
X14547857Y-10811667D02*
X14557381Y-10802143D01*
X14576428Y-10773571D01*
X14585952Y-10754524D01*
X14595476Y-10725952D01*
X14605000Y-10678333D01*
X14605000Y-10640238D01*
X14595476Y-10592619D01*
X14585952Y-10564048D01*
X14576428Y-10545000D01*
X14557381Y-10516429D01*
X14547857Y-10506905D01*
M02*
