%TF.GenerationSoftware,KiCad,Pcbnew,6.0.9+dfsg-1*%
%TF.CreationDate,2022-12-26T23:17:40+00:00*%
%TF.ProjectId,PMOD-USB-Device,504d4f44-2d55-4534-922d-446576696365,1*%
%TF.SameCoordinates,Original*%
%TF.FileFunction,Copper,L2,Bot*%
%TF.FilePolarity,Positive*%
%FSLAX46Y46*%
G04 Gerber Fmt 4.6, Leading zero omitted, Abs format (unit mm)*
G04 Created by KiCad (PCBNEW 6.0.9+dfsg-1) date 2022-12-26 23:17:40*
%MOMM*%
%LPD*%
G01*
G04 APERTURE LIST*
%TA.AperFunction,ComponentPad*%
%ADD10R,1.700000X1.700000*%
%TD*%
%TA.AperFunction,ComponentPad*%
%ADD11C,1.700000*%
%TD*%
%TA.AperFunction,ComponentPad*%
%ADD12O,1.700000X1.700000*%
%TD*%
%TA.AperFunction,ComponentPad*%
%ADD13O,1.600000X1.000000*%
%TD*%
%TA.AperFunction,ComponentPad*%
%ADD14O,2.100000X1.000000*%
%TD*%
%TA.AperFunction,ViaPad*%
%ADD15C,0.800000*%
%TD*%
%TA.AperFunction,Conductor*%
%ADD16C,0.400000*%
%TD*%
G04 APERTURE END LIST*
D10*
%TO.P,J2,1,Pin_1*%
%TO.N,unconnected-(J2-Pad1)*%
X100574000Y-97119600D03*
D11*
%TO.P,J2,2,Pin_2*%
%TO.N,/usb_dp_i*%
X100574000Y-94579600D03*
%TO.P,J2,3,Pin_3*%
%TO.N,/usb_dn_i*%
X100574000Y-92039600D03*
%TO.P,J2,4,Pin_4*%
%TO.N,/usb_pu_i*%
X100574000Y-89499600D03*
%TO.P,J2,5,Pin_5*%
%TO.N,GND*%
X100574000Y-86959600D03*
%TO.P,J2,6,Pin_6*%
%TO.N,unconnected-(J2-Pad6)*%
X100574000Y-84419600D03*
D12*
%TO.P,J2,7,Pin_7*%
%TO.N,unconnected-(J2-Pad7)*%
X103114000Y-97119600D03*
D11*
%TO.P,J2,8,Pin_8*%
%TO.N,unconnected-(J2-Pad8)*%
X103114000Y-94579600D03*
%TO.P,J2,9,Pin_9*%
%TO.N,unconnected-(J2-Pad9)*%
X103114000Y-92039600D03*
%TO.P,J2,10,Pin_10*%
%TO.N,unconnected-(J2-Pad10)*%
X103114000Y-89499600D03*
%TO.P,J2,11,Pin_11*%
%TO.N,GND*%
X103114000Y-86959600D03*
%TO.P,J2,12,Pin_12*%
%TO.N,unconnected-(J2-Pad12)*%
X103114000Y-84419600D03*
%TD*%
D13*
%TO.P,J1,S1,SHIELD*%
%TO.N,/shield*%
X79390000Y-98122200D03*
X79390000Y-89482200D03*
D14*
X83570000Y-89482200D03*
X83570000Y-98122200D03*
%TD*%
D15*
%TO.N,GND*%
X91592400Y-90830400D03*
X91592400Y-99060000D03*
X91567000Y-93319600D03*
X85979000Y-89662000D03*
X85979000Y-97790000D03*
X91592400Y-97434400D03*
X91592400Y-95808800D03*
X91592400Y-89154000D03*
%TO.N,+5V*%
X85979000Y-90805000D03*
X96266000Y-93319600D03*
X85979000Y-96647000D03*
%TD*%
D16*
%TO.N,+5V*%
X86069400Y-94550000D02*
X95035600Y-94550000D01*
X85979000Y-94056200D02*
X85979000Y-96647000D01*
X95035600Y-94550000D02*
X96266000Y-93319600D01*
X85979000Y-90805000D02*
X85979000Y-94056200D01*
%TD*%
%TA.AperFunction,Conductor*%
%TO.N,GND*%
G36*
X102970018Y-82010000D02*
G01*
X102984851Y-82012310D01*
X102984855Y-82012310D01*
X102993724Y-82013691D01*
X103008981Y-82011696D01*
X103034302Y-82010953D01*
X103203285Y-82023039D01*
X103221064Y-82025596D01*
X103411392Y-82066999D01*
X103428641Y-82072063D01*
X103611150Y-82140136D01*
X103627502Y-82147604D01*
X103798458Y-82240952D01*
X103813582Y-82250672D01*
X103969514Y-82367402D01*
X103983100Y-82379175D01*
X104120825Y-82516900D01*
X104132598Y-82530486D01*
X104249328Y-82686418D01*
X104259048Y-82701542D01*
X104352396Y-82872498D01*
X104359864Y-82888850D01*
X104427937Y-83071359D01*
X104433001Y-83088607D01*
X104474404Y-83278936D01*
X104476961Y-83296715D01*
X104486242Y-83426470D01*
X104488540Y-83458601D01*
X104487793Y-83476565D01*
X104487692Y-83484845D01*
X104486309Y-83493724D01*
X104487474Y-83502630D01*
X104490436Y-83525283D01*
X104491500Y-83541621D01*
X104491500Y-83620984D01*
X104471498Y-83689105D01*
X104417842Y-83735598D01*
X104347568Y-83745702D01*
X104282988Y-83716208D01*
X104259708Y-83689424D01*
X104196822Y-83592217D01*
X104196820Y-83592214D01*
X104194014Y-83587877D01*
X104043670Y-83422651D01*
X104039619Y-83419452D01*
X104039615Y-83419448D01*
X103872414Y-83287400D01*
X103872410Y-83287398D01*
X103868359Y-83284198D01*
X103672789Y-83176238D01*
X103667920Y-83174514D01*
X103667916Y-83174512D01*
X103467087Y-83103395D01*
X103467083Y-83103394D01*
X103462212Y-83101669D01*
X103457119Y-83100762D01*
X103457116Y-83100761D01*
X103247373Y-83063400D01*
X103247367Y-83063399D01*
X103242284Y-83062494D01*
X103168452Y-83061592D01*
X103024081Y-83059828D01*
X103024079Y-83059828D01*
X103018911Y-83059765D01*
X102798091Y-83093555D01*
X102585756Y-83162957D01*
X102387607Y-83266107D01*
X102383474Y-83269210D01*
X102383471Y-83269212D01*
X102346830Y-83296723D01*
X102208965Y-83400235D01*
X102054629Y-83561738D01*
X101947201Y-83719221D01*
X101892293Y-83764221D01*
X101821768Y-83772392D01*
X101758021Y-83741138D01*
X101737324Y-83716654D01*
X101656822Y-83592217D01*
X101656820Y-83592214D01*
X101654014Y-83587877D01*
X101503670Y-83422651D01*
X101499619Y-83419452D01*
X101499615Y-83419448D01*
X101332414Y-83287400D01*
X101332410Y-83287398D01*
X101328359Y-83284198D01*
X101132789Y-83176238D01*
X101127920Y-83174514D01*
X101127916Y-83174512D01*
X100927087Y-83103395D01*
X100927083Y-83103394D01*
X100922212Y-83101669D01*
X100917119Y-83100762D01*
X100917116Y-83100761D01*
X100707373Y-83063400D01*
X100707367Y-83063399D01*
X100702284Y-83062494D01*
X100628452Y-83061592D01*
X100484081Y-83059828D01*
X100484079Y-83059828D01*
X100478911Y-83059765D01*
X100258091Y-83093555D01*
X100045756Y-83162957D01*
X99847607Y-83266107D01*
X99843474Y-83269210D01*
X99843471Y-83269212D01*
X99806830Y-83296723D01*
X99668965Y-83400235D01*
X99514629Y-83561738D01*
X99388743Y-83746280D01*
X99294688Y-83948905D01*
X99234989Y-84164170D01*
X99211251Y-84386295D01*
X99224110Y-84609315D01*
X99225247Y-84614361D01*
X99225248Y-84614367D01*
X99246275Y-84707669D01*
X99273222Y-84827239D01*
X99357266Y-85034216D01*
X99408942Y-85118544D01*
X99471291Y-85220288D01*
X99473987Y-85224688D01*
X99620250Y-85393538D01*
X99792126Y-85536232D01*
X99865955Y-85579374D01*
X99914679Y-85631012D01*
X99927750Y-85700795D01*
X99901019Y-85766567D01*
X99860562Y-85799927D01*
X99852460Y-85804144D01*
X99843734Y-85809639D01*
X99823677Y-85824699D01*
X99815223Y-85836027D01*
X99821968Y-85848358D01*
X100561188Y-86587578D01*
X100575132Y-86595192D01*
X100576965Y-86595061D01*
X100583580Y-86590810D01*
X101327389Y-85847001D01*
X101334410Y-85834144D01*
X101327611Y-85824813D01*
X101323559Y-85822121D01*
X101286602Y-85801720D01*
X101236631Y-85751287D01*
X101221859Y-85681845D01*
X101246975Y-85615439D01*
X101274327Y-85588832D01*
X101297797Y-85572091D01*
X101453860Y-85460773D01*
X101612096Y-85303089D01*
X101671594Y-85220289D01*
X101742453Y-85121677D01*
X101743776Y-85122628D01*
X101790645Y-85079457D01*
X101860580Y-85067225D01*
X101926026Y-85094744D01*
X101953875Y-85126594D01*
X102013987Y-85224688D01*
X102160250Y-85393538D01*
X102332126Y-85536232D01*
X102405955Y-85579374D01*
X102454679Y-85631012D01*
X102467750Y-85700795D01*
X102441019Y-85766567D01*
X102400562Y-85799927D01*
X102392460Y-85804144D01*
X102383734Y-85809639D01*
X102363677Y-85824699D01*
X102355223Y-85836027D01*
X102361968Y-85848358D01*
X103101188Y-86587578D01*
X103115132Y-86595192D01*
X103116965Y-86595061D01*
X103123580Y-86590810D01*
X103867389Y-85847001D01*
X103874410Y-85834144D01*
X103867611Y-85824813D01*
X103863559Y-85822121D01*
X103826602Y-85801720D01*
X103776631Y-85751287D01*
X103761859Y-85681845D01*
X103786975Y-85615439D01*
X103814327Y-85588832D01*
X103837797Y-85572091D01*
X103993860Y-85460773D01*
X104152096Y-85303089D01*
X104210343Y-85222029D01*
X104263177Y-85148503D01*
X104319172Y-85104855D01*
X104389875Y-85098409D01*
X104452840Y-85131212D01*
X104488074Y-85192848D01*
X104491500Y-85222029D01*
X104491500Y-86161904D01*
X104471498Y-86230025D01*
X104417842Y-86276518D01*
X104347568Y-86286622D01*
X104282988Y-86257128D01*
X104259707Y-86230343D01*
X104247062Y-86210797D01*
X104236377Y-86201595D01*
X104226812Y-86205998D01*
X103486022Y-86946788D01*
X103478408Y-86960732D01*
X103478539Y-86962565D01*
X103482790Y-86969180D01*
X104224474Y-87710864D01*
X104236484Y-87717423D01*
X104248226Y-87708453D01*
X104263178Y-87687645D01*
X104319172Y-87643997D01*
X104389876Y-87637551D01*
X104452840Y-87670354D01*
X104488074Y-87731990D01*
X104491500Y-87761171D01*
X104491500Y-88700984D01*
X104471498Y-88769105D01*
X104417842Y-88815598D01*
X104347568Y-88825702D01*
X104282988Y-88796208D01*
X104259708Y-88769424D01*
X104196822Y-88672217D01*
X104196820Y-88672214D01*
X104194014Y-88667877D01*
X104043670Y-88502651D01*
X104039619Y-88499452D01*
X104039615Y-88499448D01*
X103872414Y-88367400D01*
X103872410Y-88367398D01*
X103868359Y-88364198D01*
X103826569Y-88341129D01*
X103776598Y-88290697D01*
X103761826Y-88221254D01*
X103786942Y-88154848D01*
X103814293Y-88128242D01*
X103863247Y-88093323D01*
X103871648Y-88082623D01*
X103864660Y-88069470D01*
X103126812Y-87331622D01*
X103112868Y-87324008D01*
X103111035Y-87324139D01*
X103104420Y-87328390D01*
X102360737Y-88072073D01*
X102353977Y-88084453D01*
X102359258Y-88091507D01*
X102405969Y-88118803D01*
X102454693Y-88170441D01*
X102467764Y-88240224D01*
X102441033Y-88305996D01*
X102400584Y-88339352D01*
X102387607Y-88346107D01*
X102383474Y-88349210D01*
X102383471Y-88349212D01*
X102217269Y-88474000D01*
X102208965Y-88480235D01*
X102054629Y-88641738D01*
X101947201Y-88799221D01*
X101892293Y-88844221D01*
X101821768Y-88852392D01*
X101758021Y-88821138D01*
X101737324Y-88796654D01*
X101656822Y-88672217D01*
X101656820Y-88672214D01*
X101654014Y-88667877D01*
X101503670Y-88502651D01*
X101499619Y-88499452D01*
X101499615Y-88499448D01*
X101332414Y-88367400D01*
X101332410Y-88367398D01*
X101328359Y-88364198D01*
X101286569Y-88341129D01*
X101236598Y-88290697D01*
X101221826Y-88221254D01*
X101246942Y-88154848D01*
X101274293Y-88128242D01*
X101323247Y-88093323D01*
X101331648Y-88082623D01*
X101324660Y-88069470D01*
X100586812Y-87331622D01*
X100572868Y-87324008D01*
X100571035Y-87324139D01*
X100564420Y-87328390D01*
X99820737Y-88072073D01*
X99813977Y-88084453D01*
X99819258Y-88091507D01*
X99865969Y-88118803D01*
X99914693Y-88170441D01*
X99927764Y-88240224D01*
X99901033Y-88305996D01*
X99860584Y-88339352D01*
X99847607Y-88346107D01*
X99843474Y-88349210D01*
X99843471Y-88349212D01*
X99677269Y-88474000D01*
X99668965Y-88480235D01*
X99514629Y-88641738D01*
X99511720Y-88646003D01*
X99511714Y-88646011D01*
X99499404Y-88664057D01*
X99388743Y-88826280D01*
X99294688Y-89028905D01*
X99234989Y-89244170D01*
X99211251Y-89466295D01*
X99224110Y-89689315D01*
X99225247Y-89694361D01*
X99225248Y-89694367D01*
X99246275Y-89787669D01*
X99273222Y-89907239D01*
X99357266Y-90114216D01*
X99401512Y-90186419D01*
X99471291Y-90300288D01*
X99473987Y-90304688D01*
X99620250Y-90473538D01*
X99792126Y-90616232D01*
X99850187Y-90650160D01*
X99865445Y-90659076D01*
X99914169Y-90710714D01*
X99927240Y-90780497D01*
X99900509Y-90846269D01*
X99860055Y-90879627D01*
X99847607Y-90886107D01*
X99843474Y-90889210D01*
X99843471Y-90889212D01*
X99694309Y-91001206D01*
X99668965Y-91020235D01*
X99514629Y-91181738D01*
X99388743Y-91366280D01*
X99345109Y-91460282D01*
X99320108Y-91514143D01*
X99294688Y-91568905D01*
X99234989Y-91784170D01*
X99211251Y-92006295D01*
X99224110Y-92229315D01*
X99225247Y-92234361D01*
X99225248Y-92234367D01*
X99246275Y-92327669D01*
X99273222Y-92447239D01*
X99275761Y-92453491D01*
X99351792Y-92640734D01*
X99357266Y-92654216D01*
X99408942Y-92738544D01*
X99471291Y-92840288D01*
X99473987Y-92844688D01*
X99620250Y-93013538D01*
X99792126Y-93156232D01*
X99826588Y-93176370D01*
X99865445Y-93199076D01*
X99914169Y-93250714D01*
X99927240Y-93320497D01*
X99900509Y-93386269D01*
X99860055Y-93419627D01*
X99847607Y-93426107D01*
X99843474Y-93429210D01*
X99843471Y-93429212D01*
X99673100Y-93557130D01*
X99668965Y-93560235D01*
X99514629Y-93721738D01*
X99388743Y-93906280D01*
X99294688Y-94108905D01*
X99234989Y-94324170D01*
X99211251Y-94546295D01*
X99224110Y-94769315D01*
X99225247Y-94774361D01*
X99225248Y-94774367D01*
X99246275Y-94867669D01*
X99273222Y-94987239D01*
X99334673Y-95138576D01*
X99346906Y-95168701D01*
X99357266Y-95194216D01*
X99408942Y-95278544D01*
X99471291Y-95380288D01*
X99473987Y-95384688D01*
X99620250Y-95553538D01*
X99624230Y-95556842D01*
X99628981Y-95560787D01*
X99668616Y-95619690D01*
X99670113Y-95690671D01*
X99632997Y-95751193D01*
X99592725Y-95775712D01*
X99504095Y-95808938D01*
X99477295Y-95818985D01*
X99360739Y-95906339D01*
X99273385Y-96022895D01*
X99222255Y-96159284D01*
X99215500Y-96221466D01*
X99215500Y-98017734D01*
X99215869Y-98021131D01*
X99216185Y-98024040D01*
X99222255Y-98079916D01*
X99273385Y-98216305D01*
X99360739Y-98332861D01*
X99477295Y-98420215D01*
X99613684Y-98471345D01*
X99675866Y-98478100D01*
X101472134Y-98478100D01*
X101534316Y-98471345D01*
X101670705Y-98420215D01*
X101787261Y-98332861D01*
X101874615Y-98216305D01*
X101896799Y-98157129D01*
X101918598Y-98098982D01*
X101961240Y-98042218D01*
X102027802Y-98017518D01*
X102097150Y-98032726D01*
X102131817Y-98060714D01*
X102160250Y-98093538D01*
X102332126Y-98236232D01*
X102525000Y-98348938D01*
X102733692Y-98428630D01*
X102738760Y-98429661D01*
X102738763Y-98429662D01*
X102846017Y-98451483D01*
X102952597Y-98473167D01*
X102957772Y-98473357D01*
X102957774Y-98473357D01*
X103170673Y-98481164D01*
X103170677Y-98481164D01*
X103175837Y-98481353D01*
X103180957Y-98480697D01*
X103180959Y-98480697D01*
X103392288Y-98453625D01*
X103392289Y-98453625D01*
X103397416Y-98452968D01*
X103402366Y-98451483D01*
X103606429Y-98390261D01*
X103606434Y-98390259D01*
X103611384Y-98388774D01*
X103811994Y-98290496D01*
X103993860Y-98160773D01*
X104152096Y-98003089D01*
X104155112Y-97998892D01*
X104263177Y-97848503D01*
X104319172Y-97804855D01*
X104389875Y-97798409D01*
X104452840Y-97831212D01*
X104488074Y-97892848D01*
X104491500Y-97922029D01*
X104491500Y-97950633D01*
X104490000Y-97970018D01*
X104487690Y-97984851D01*
X104487690Y-97984855D01*
X104486309Y-97993724D01*
X104488011Y-98006737D01*
X104488304Y-98008976D01*
X104489047Y-98034302D01*
X104479788Y-98163771D01*
X104476962Y-98203279D01*
X104474404Y-98221064D01*
X104448914Y-98338242D01*
X104433001Y-98411392D01*
X104427937Y-98428641D01*
X104359864Y-98611150D01*
X104352396Y-98627502D01*
X104259048Y-98798458D01*
X104249328Y-98813582D01*
X104132598Y-98969514D01*
X104120825Y-98983100D01*
X103983100Y-99120825D01*
X103969514Y-99132598D01*
X103813582Y-99249328D01*
X103798458Y-99259048D01*
X103627502Y-99352396D01*
X103611150Y-99359864D01*
X103428641Y-99427937D01*
X103411393Y-99433001D01*
X103221064Y-99474404D01*
X103203285Y-99476961D01*
X103041395Y-99488540D01*
X103023435Y-99487793D01*
X103015155Y-99487692D01*
X103006276Y-99486309D01*
X102974714Y-99490436D01*
X102958379Y-99491500D01*
X80049367Y-99491500D01*
X80029982Y-99490000D01*
X80015149Y-99487690D01*
X80015145Y-99487690D01*
X80006276Y-99486309D01*
X79991019Y-99488304D01*
X79965698Y-99489047D01*
X79796715Y-99476961D01*
X79778936Y-99474404D01*
X79588607Y-99433001D01*
X79571359Y-99427937D01*
X79428776Y-99374756D01*
X79371941Y-99332209D01*
X79347130Y-99265689D01*
X79362222Y-99196314D01*
X79412424Y-99146112D01*
X79472809Y-99130700D01*
X79739769Y-99130700D01*
X79742825Y-99130400D01*
X79742832Y-99130400D01*
X79801340Y-99124663D01*
X79886833Y-99116280D01*
X79892734Y-99114498D01*
X79892736Y-99114498D01*
X79966053Y-99092362D01*
X80076169Y-99059116D01*
X80250796Y-98966266D01*
X80342895Y-98891152D01*
X80399287Y-98845160D01*
X80399290Y-98845157D01*
X80404062Y-98841265D01*
X80416344Y-98826419D01*
X80526201Y-98693625D01*
X80526203Y-98693621D01*
X80530130Y-98688875D01*
X80624198Y-98514901D01*
X80682682Y-98325968D01*
X80695577Y-98203279D01*
X80702711Y-98135404D01*
X80702711Y-98135402D01*
X80703355Y-98129275D01*
X80702067Y-98115125D01*
X82006645Y-98115125D01*
X82007204Y-98121265D01*
X82023736Y-98302919D01*
X82024570Y-98312088D01*
X82026308Y-98317994D01*
X82026309Y-98317998D01*
X82047577Y-98390261D01*
X82080410Y-98501819D01*
X82083263Y-98507277D01*
X82083265Y-98507281D01*
X82130720Y-98598053D01*
X82172040Y-98677090D01*
X82295968Y-98831225D01*
X82300692Y-98835189D01*
X82307933Y-98841265D01*
X82447474Y-98958354D01*
X82452872Y-98961321D01*
X82452877Y-98961325D01*
X82596180Y-99040105D01*
X82620787Y-99053633D01*
X82626654Y-99055494D01*
X82626656Y-99055495D01*
X82803436Y-99111573D01*
X82809306Y-99113435D01*
X82963227Y-99130700D01*
X84169769Y-99130700D01*
X84172825Y-99130400D01*
X84172832Y-99130400D01*
X84231340Y-99124663D01*
X84316833Y-99116280D01*
X84322734Y-99114498D01*
X84322736Y-99114498D01*
X84396053Y-99092362D01*
X84506169Y-99059116D01*
X84680796Y-98966266D01*
X84772895Y-98891152D01*
X84829287Y-98845160D01*
X84829290Y-98845157D01*
X84834062Y-98841265D01*
X84846344Y-98826419D01*
X84956201Y-98693625D01*
X84956203Y-98693621D01*
X84960130Y-98688875D01*
X85054198Y-98514901D01*
X85112682Y-98325968D01*
X85125577Y-98203279D01*
X85132711Y-98135404D01*
X85132711Y-98135402D01*
X85133355Y-98129275D01*
X85121019Y-97993724D01*
X85115989Y-97938451D01*
X85115988Y-97938448D01*
X85115430Y-97932312D01*
X85113187Y-97924688D01*
X85061330Y-97748494D01*
X85059590Y-97742581D01*
X85049919Y-97724081D01*
X84970813Y-97572768D01*
X84967960Y-97567310D01*
X84844032Y-97413175D01*
X84837727Y-97407884D01*
X84739981Y-97325866D01*
X84692526Y-97286046D01*
X84687128Y-97283079D01*
X84687123Y-97283075D01*
X84524608Y-97193733D01*
X84524609Y-97193733D01*
X84519213Y-97190767D01*
X84513346Y-97188906D01*
X84513344Y-97188905D01*
X84336564Y-97132827D01*
X84336563Y-97132827D01*
X84330694Y-97130965D01*
X84176773Y-97113700D01*
X83955223Y-97113700D01*
X83887102Y-97093698D01*
X83840609Y-97040042D01*
X83830505Y-96969768D01*
X83838234Y-96940908D01*
X83844995Y-96924003D01*
X83847530Y-96917666D01*
X83848644Y-96910938D01*
X83848645Y-96910934D01*
X83875993Y-96745739D01*
X83875993Y-96745736D01*
X83877108Y-96739002D01*
X83872631Y-96653565D01*
X83872287Y-96647000D01*
X85065496Y-96647000D01*
X85085458Y-96836928D01*
X85144473Y-97018556D01*
X85239960Y-97183944D01*
X85367747Y-97325866D01*
X85522248Y-97438118D01*
X85528276Y-97440802D01*
X85528278Y-97440803D01*
X85690681Y-97513109D01*
X85696712Y-97515794D01*
X85790112Y-97535647D01*
X85877056Y-97554128D01*
X85877061Y-97554128D01*
X85883513Y-97555500D01*
X86074487Y-97555500D01*
X86080939Y-97554128D01*
X86080944Y-97554128D01*
X86167888Y-97535647D01*
X86261288Y-97515794D01*
X86267319Y-97513109D01*
X86429722Y-97440803D01*
X86429724Y-97440802D01*
X86435752Y-97438118D01*
X86590253Y-97325866D01*
X86718040Y-97183944D01*
X86813527Y-97018556D01*
X86872542Y-96836928D01*
X86892504Y-96647000D01*
X86872542Y-96457072D01*
X86813527Y-96275444D01*
X86780447Y-96218147D01*
X86721342Y-96115775D01*
X86721341Y-96115774D01*
X86718040Y-96110056D01*
X86713621Y-96105148D01*
X86711564Y-96102317D01*
X86687705Y-96035449D01*
X86687500Y-96028256D01*
X86687500Y-95384500D01*
X86707502Y-95316379D01*
X86761158Y-95269886D01*
X86813500Y-95258500D01*
X95006688Y-95258500D01*
X95015258Y-95258792D01*
X95065376Y-95262209D01*
X95065380Y-95262209D01*
X95072952Y-95262725D01*
X95080429Y-95261420D01*
X95080430Y-95261420D01*
X95106908Y-95256799D01*
X95135903Y-95251738D01*
X95142421Y-95250777D01*
X95205842Y-95243102D01*
X95212943Y-95240419D01*
X95215552Y-95239778D01*
X95231862Y-95235315D01*
X95234398Y-95234550D01*
X95241884Y-95233243D01*
X95300400Y-95207556D01*
X95306504Y-95205065D01*
X95359148Y-95185173D01*
X95359149Y-95185172D01*
X95366256Y-95182487D01*
X95372519Y-95178183D01*
X95374885Y-95176946D01*
X95389697Y-95168701D01*
X95391951Y-95167368D01*
X95398905Y-95164315D01*
X95449602Y-95125413D01*
X95454932Y-95121541D01*
X95501320Y-95089661D01*
X95501325Y-95089656D01*
X95507581Y-95085357D01*
X95549027Y-95038839D01*
X95554008Y-95033562D01*
X96332536Y-94255035D01*
X96395433Y-94220884D01*
X96548288Y-94188394D01*
X96715612Y-94113897D01*
X96716722Y-94113403D01*
X96716724Y-94113402D01*
X96722752Y-94110718D01*
X96731710Y-94104210D01*
X96778157Y-94070464D01*
X96877253Y-93998466D01*
X96936746Y-93932392D01*
X97000621Y-93861452D01*
X97000622Y-93861451D01*
X97005040Y-93856544D01*
X97069985Y-93744057D01*
X97097223Y-93696879D01*
X97097224Y-93696878D01*
X97100527Y-93691156D01*
X97159542Y-93509528D01*
X97166409Y-93444198D01*
X97178814Y-93326165D01*
X97179504Y-93319600D01*
X97171351Y-93242027D01*
X97160232Y-93136235D01*
X97160232Y-93136233D01*
X97159542Y-93129672D01*
X97100527Y-92948044D01*
X97088226Y-92926737D01*
X97008341Y-92788374D01*
X97005040Y-92782656D01*
X96968143Y-92741677D01*
X96881675Y-92645645D01*
X96881674Y-92645644D01*
X96877253Y-92640734D01*
X96722752Y-92528482D01*
X96716724Y-92525798D01*
X96716722Y-92525797D01*
X96554319Y-92453491D01*
X96554318Y-92453491D01*
X96548288Y-92450806D01*
X96454888Y-92430953D01*
X96367944Y-92412472D01*
X96367939Y-92412472D01*
X96361487Y-92411100D01*
X96170513Y-92411100D01*
X96164061Y-92412472D01*
X96164056Y-92412472D01*
X96077112Y-92430953D01*
X95983712Y-92450806D01*
X95977682Y-92453491D01*
X95977681Y-92453491D01*
X95815278Y-92525797D01*
X95815276Y-92525798D01*
X95809248Y-92528482D01*
X95654747Y-92640734D01*
X95650326Y-92645644D01*
X95650325Y-92645645D01*
X95563858Y-92741677D01*
X95526960Y-92782656D01*
X95523659Y-92788374D01*
X95443775Y-92926737D01*
X95431473Y-92948044D01*
X95372458Y-93129672D01*
X95369667Y-93156232D01*
X95367550Y-93176370D01*
X95340537Y-93242027D01*
X95331335Y-93252295D01*
X94779035Y-93804595D01*
X94716723Y-93838621D01*
X94689940Y-93841500D01*
X86813500Y-93841500D01*
X86745379Y-93821498D01*
X86698886Y-93767842D01*
X86687500Y-93715500D01*
X86687500Y-91423744D01*
X86707502Y-91355623D01*
X86711564Y-91349683D01*
X86713621Y-91346852D01*
X86718040Y-91341944D01*
X86735643Y-91311455D01*
X86810223Y-91182279D01*
X86810224Y-91182278D01*
X86813527Y-91176556D01*
X86872542Y-90994928D01*
X86881742Y-90907400D01*
X86891814Y-90811565D01*
X86892504Y-90805000D01*
X86880955Y-90695116D01*
X86873232Y-90621635D01*
X86873232Y-90621633D01*
X86872542Y-90615072D01*
X86813527Y-90433444D01*
X86800066Y-90410128D01*
X86753318Y-90329159D01*
X86718040Y-90268056D01*
X86682427Y-90228503D01*
X86594675Y-90131045D01*
X86594674Y-90131044D01*
X86590253Y-90126134D01*
X86435752Y-90013882D01*
X86429724Y-90011198D01*
X86429722Y-90011197D01*
X86267319Y-89938891D01*
X86267318Y-89938891D01*
X86261288Y-89936206D01*
X86167888Y-89916353D01*
X86080944Y-89897872D01*
X86080939Y-89897872D01*
X86074487Y-89896500D01*
X85883513Y-89896500D01*
X85877061Y-89897872D01*
X85877056Y-89897872D01*
X85790112Y-89916353D01*
X85696712Y-89936206D01*
X85690682Y-89938891D01*
X85690681Y-89938891D01*
X85528278Y-90011197D01*
X85528276Y-90011198D01*
X85522248Y-90013882D01*
X85367747Y-90126134D01*
X85363326Y-90131044D01*
X85363325Y-90131045D01*
X85275574Y-90228503D01*
X85239960Y-90268056D01*
X85204682Y-90329159D01*
X85157935Y-90410128D01*
X85144473Y-90433444D01*
X85085458Y-90615072D01*
X85084768Y-90621633D01*
X85084768Y-90621635D01*
X85077045Y-90695116D01*
X85065496Y-90805000D01*
X85066186Y-90811565D01*
X85076259Y-90907400D01*
X85085458Y-90994928D01*
X85144473Y-91176556D01*
X85147776Y-91182278D01*
X85147777Y-91182279D01*
X85222357Y-91311455D01*
X85239960Y-91341944D01*
X85244379Y-91346852D01*
X85246436Y-91349683D01*
X85270295Y-91416551D01*
X85270500Y-91423744D01*
X85270500Y-96028256D01*
X85250498Y-96096377D01*
X85246436Y-96102317D01*
X85244379Y-96105148D01*
X85239960Y-96110056D01*
X85236659Y-96115774D01*
X85236658Y-96115775D01*
X85177554Y-96218147D01*
X85144473Y-96275444D01*
X85085458Y-96457072D01*
X85065496Y-96647000D01*
X83872287Y-96647000D01*
X83867987Y-96564966D01*
X83867630Y-96558153D01*
X83844304Y-96473466D01*
X83821352Y-96390141D01*
X83819539Y-96383559D01*
X83735078Y-96223364D01*
X83730673Y-96218151D01*
X83730670Y-96218147D01*
X83622594Y-96090257D01*
X83622590Y-96090253D01*
X83618187Y-96085043D01*
X83553321Y-96035449D01*
X83479743Y-95979194D01*
X83479739Y-95979191D01*
X83474322Y-95975050D01*
X83369186Y-95926025D01*
X83316369Y-95901395D01*
X83316366Y-95901394D01*
X83310192Y-95898515D01*
X83303544Y-95897029D01*
X83303541Y-95897028D01*
X83138494Y-95860136D01*
X83138495Y-95860136D01*
X83133457Y-95859010D01*
X83127912Y-95858700D01*
X82994756Y-95858700D01*
X82859963Y-95873343D01*
X82776609Y-95901395D01*
X82694796Y-95928928D01*
X82694794Y-95928929D01*
X82688325Y-95931106D01*
X82533095Y-96024377D01*
X82528138Y-96029065D01*
X82528135Y-96029067D01*
X82408879Y-96141843D01*
X82401515Y-96148807D01*
X82397683Y-96154445D01*
X82397680Y-96154449D01*
X82349813Y-96224883D01*
X82299723Y-96298588D01*
X82232470Y-96466734D01*
X82231356Y-96473462D01*
X82231355Y-96473466D01*
X82204007Y-96638661D01*
X82202892Y-96645398D01*
X82203249Y-96652215D01*
X82203249Y-96652219D01*
X82208151Y-96745739D01*
X82212370Y-96826247D01*
X82214181Y-96832820D01*
X82214181Y-96832823D01*
X82237551Y-96917666D01*
X82260461Y-97000841D01*
X82344922Y-97161036D01*
X82349330Y-97166252D01*
X82367372Y-97187602D01*
X82396063Y-97252543D01*
X82385090Y-97322686D01*
X82350768Y-97366572D01*
X82310718Y-97399236D01*
X82310715Y-97399239D01*
X82305938Y-97403135D01*
X82302011Y-97407882D01*
X82302009Y-97407884D01*
X82183799Y-97550775D01*
X82183797Y-97550779D01*
X82179870Y-97555525D01*
X82085802Y-97729499D01*
X82027318Y-97918432D01*
X82026674Y-97924557D01*
X82026674Y-97924558D01*
X82010346Y-98079916D01*
X82006645Y-98115125D01*
X80702067Y-98115125D01*
X80691019Y-97993724D01*
X80685989Y-97938451D01*
X80685988Y-97938448D01*
X80685430Y-97932312D01*
X80683187Y-97924688D01*
X80631330Y-97748494D01*
X80629590Y-97742581D01*
X80619919Y-97724081D01*
X80540813Y-97572768D01*
X80537960Y-97567310D01*
X80414032Y-97413175D01*
X80407727Y-97407884D01*
X80309981Y-97325866D01*
X80262526Y-97286046D01*
X80257128Y-97283079D01*
X80257123Y-97283075D01*
X80094608Y-97193733D01*
X80094609Y-97193733D01*
X80089213Y-97190767D01*
X80083346Y-97188906D01*
X80083344Y-97188905D01*
X79906564Y-97132827D01*
X79906563Y-97132827D01*
X79900694Y-97130965D01*
X79746773Y-97113700D01*
X79040231Y-97113700D01*
X79037175Y-97114000D01*
X79037168Y-97114000D01*
X78980059Y-97119600D01*
X78893167Y-97128120D01*
X78887266Y-97129902D01*
X78887264Y-97129902D01*
X78813947Y-97152038D01*
X78703831Y-97185284D01*
X78698390Y-97188177D01*
X78693656Y-97190694D01*
X78624118Y-97205016D01*
X78557877Y-97179469D01*
X78515963Y-97122165D01*
X78508500Y-97079444D01*
X78508500Y-90525940D01*
X78528502Y-90457819D01*
X78582158Y-90411326D01*
X78652432Y-90401222D01*
X78684135Y-90410128D01*
X78685389Y-90410665D01*
X78690787Y-90413633D01*
X78879306Y-90473435D01*
X79033227Y-90490700D01*
X79739769Y-90490700D01*
X79742825Y-90490400D01*
X79742832Y-90490400D01*
X79801340Y-90484663D01*
X79886833Y-90476280D01*
X79892734Y-90474498D01*
X79892736Y-90474498D01*
X79966053Y-90452362D01*
X80076169Y-90419116D01*
X80250796Y-90326266D01*
X80391866Y-90211212D01*
X80399287Y-90205160D01*
X80399290Y-90205157D01*
X80404062Y-90201265D01*
X80472432Y-90118620D01*
X80526201Y-90053625D01*
X80526203Y-90053621D01*
X80530130Y-90048875D01*
X80624198Y-89874901D01*
X80682682Y-89685968D01*
X80703355Y-89489275D01*
X80702067Y-89475125D01*
X82006645Y-89475125D01*
X82024570Y-89672088D01*
X82080410Y-89861819D01*
X82083263Y-89867277D01*
X82083265Y-89867281D01*
X82130720Y-89958053D01*
X82172040Y-90037090D01*
X82295968Y-90191225D01*
X82352828Y-90238936D01*
X82392154Y-90298046D01*
X82393280Y-90369033D01*
X82376048Y-90406280D01*
X82299723Y-90518588D01*
X82232470Y-90686734D01*
X82231356Y-90693462D01*
X82231355Y-90693466D01*
X82204007Y-90858661D01*
X82202892Y-90865398D01*
X82203249Y-90872215D01*
X82203249Y-90872219D01*
X82208151Y-90965739D01*
X82212370Y-91046247D01*
X82214181Y-91052820D01*
X82214181Y-91052823D01*
X82237551Y-91137666D01*
X82260461Y-91220841D01*
X82344922Y-91381036D01*
X82349327Y-91386249D01*
X82349330Y-91386253D01*
X82457406Y-91514143D01*
X82457410Y-91514147D01*
X82461813Y-91519357D01*
X82467237Y-91523504D01*
X82467238Y-91523505D01*
X82600257Y-91625206D01*
X82600261Y-91625209D01*
X82605678Y-91629350D01*
X82692372Y-91669776D01*
X82763631Y-91703005D01*
X82763634Y-91703006D01*
X82769808Y-91705885D01*
X82776456Y-91707371D01*
X82776459Y-91707372D01*
X82882421Y-91731057D01*
X82946543Y-91745390D01*
X82952088Y-91745700D01*
X83085244Y-91745700D01*
X83220037Y-91731057D01*
X83338190Y-91691294D01*
X83385204Y-91675472D01*
X83385206Y-91675471D01*
X83391675Y-91673294D01*
X83546905Y-91580023D01*
X83551862Y-91575335D01*
X83551865Y-91575333D01*
X83673527Y-91460282D01*
X83673529Y-91460280D01*
X83678485Y-91455593D01*
X83682317Y-91449955D01*
X83682320Y-91449951D01*
X83776442Y-91311455D01*
X83780277Y-91305812D01*
X83847530Y-91137666D01*
X83848644Y-91130938D01*
X83848645Y-91130934D01*
X83875993Y-90965739D01*
X83875993Y-90965736D01*
X83877108Y-90959002D01*
X83873451Y-90889212D01*
X83867987Y-90784966D01*
X83867630Y-90778153D01*
X83865039Y-90768744D01*
X83832375Y-90650160D01*
X83833569Y-90579173D01*
X83872952Y-90520101D01*
X83938019Y-90491699D01*
X83953851Y-90490700D01*
X84169769Y-90490700D01*
X84172825Y-90490400D01*
X84172832Y-90490400D01*
X84231340Y-90484663D01*
X84316833Y-90476280D01*
X84322734Y-90474498D01*
X84322736Y-90474498D01*
X84396053Y-90452362D01*
X84506169Y-90419116D01*
X84680796Y-90326266D01*
X84821866Y-90211212D01*
X84829287Y-90205160D01*
X84829290Y-90205157D01*
X84834062Y-90201265D01*
X84902432Y-90118620D01*
X84956201Y-90053625D01*
X84956203Y-90053621D01*
X84960130Y-90048875D01*
X85054198Y-89874901D01*
X85112682Y-89685968D01*
X85133355Y-89489275D01*
X85115430Y-89292312D01*
X85059590Y-89102581D01*
X85049919Y-89084081D01*
X84970813Y-88932768D01*
X84967960Y-88927310D01*
X84844032Y-88773175D01*
X84837727Y-88767884D01*
X84718543Y-88667877D01*
X84692526Y-88646046D01*
X84687128Y-88643079D01*
X84687123Y-88643075D01*
X84524608Y-88553733D01*
X84524609Y-88553733D01*
X84519213Y-88550767D01*
X84513346Y-88548906D01*
X84513344Y-88548905D01*
X84336564Y-88492827D01*
X84336563Y-88492827D01*
X84330694Y-88490965D01*
X84176773Y-88473700D01*
X82970231Y-88473700D01*
X82967175Y-88474000D01*
X82967168Y-88474000D01*
X82908660Y-88479737D01*
X82823167Y-88488120D01*
X82817266Y-88489902D01*
X82817264Y-88489902D01*
X82775038Y-88502651D01*
X82633831Y-88545284D01*
X82459204Y-88638134D01*
X82372938Y-88708491D01*
X82310713Y-88759240D01*
X82310710Y-88759243D01*
X82305938Y-88763135D01*
X82302011Y-88767882D01*
X82302009Y-88767884D01*
X82183799Y-88910775D01*
X82183797Y-88910779D01*
X82179870Y-88915525D01*
X82085802Y-89089499D01*
X82027318Y-89278432D01*
X82026674Y-89284557D01*
X82026674Y-89284558D01*
X82008113Y-89461162D01*
X82006645Y-89475125D01*
X80702067Y-89475125D01*
X80685430Y-89292312D01*
X80629590Y-89102581D01*
X80619919Y-89084081D01*
X80540813Y-88932768D01*
X80537960Y-88927310D01*
X80414032Y-88773175D01*
X80407727Y-88767884D01*
X80288543Y-88667877D01*
X80262526Y-88646046D01*
X80257128Y-88643079D01*
X80257123Y-88643075D01*
X80094608Y-88553733D01*
X80094609Y-88553733D01*
X80089213Y-88550767D01*
X80083346Y-88548906D01*
X80083344Y-88548905D01*
X79906564Y-88492827D01*
X79906563Y-88492827D01*
X79900694Y-88490965D01*
X79746773Y-88473700D01*
X79040231Y-88473700D01*
X79037175Y-88474000D01*
X79037168Y-88474000D01*
X78978660Y-88479737D01*
X78893167Y-88488120D01*
X78887266Y-88489902D01*
X78887264Y-88489902D01*
X78845038Y-88502651D01*
X78703831Y-88545284D01*
X78698392Y-88548176D01*
X78698390Y-88548177D01*
X78693656Y-88550694D01*
X78624118Y-88565016D01*
X78557877Y-88539469D01*
X78515963Y-88482165D01*
X78508500Y-88439444D01*
X78508500Y-86931463D01*
X99212050Y-86931463D01*
X99224309Y-87144077D01*
X99225745Y-87154297D01*
X99272565Y-87362046D01*
X99275645Y-87371875D01*
X99355770Y-87569203D01*
X99360413Y-87578394D01*
X99440460Y-87709020D01*
X99450916Y-87718480D01*
X99459694Y-87714696D01*
X100201978Y-86972412D01*
X100208356Y-86960732D01*
X100938408Y-86960732D01*
X100938539Y-86962565D01*
X100942790Y-86969180D01*
X101684474Y-87710864D01*
X101696484Y-87717423D01*
X101708223Y-87708455D01*
X101742022Y-87661419D01*
X101743149Y-87662229D01*
X101790659Y-87618481D01*
X101860596Y-87606261D01*
X101926038Y-87633791D01*
X101953870Y-87665629D01*
X101980459Y-87709019D01*
X101990916Y-87718480D01*
X101999694Y-87714696D01*
X102741978Y-86972412D01*
X102749592Y-86958468D01*
X102749461Y-86956635D01*
X102745210Y-86950020D01*
X102003849Y-86208659D01*
X101992313Y-86202359D01*
X101980028Y-86211984D01*
X101947192Y-86260120D01*
X101892281Y-86305123D01*
X101821756Y-86313294D01*
X101758009Y-86282040D01*
X101737311Y-86257555D01*
X101707062Y-86210797D01*
X101696377Y-86201595D01*
X101686812Y-86205998D01*
X100946022Y-86946788D01*
X100938408Y-86960732D01*
X100208356Y-86960732D01*
X100209592Y-86958468D01*
X100209461Y-86956635D01*
X100205210Y-86950020D01*
X99463849Y-86208659D01*
X99452313Y-86202359D01*
X99440031Y-86211982D01*
X99392089Y-86282262D01*
X99387004Y-86291213D01*
X99297338Y-86484383D01*
X99293775Y-86494070D01*
X99236864Y-86699281D01*
X99234933Y-86709400D01*
X99212302Y-86921174D01*
X99212050Y-86931463D01*
X78508500Y-86931463D01*
X78508500Y-83553250D01*
X78510246Y-83532345D01*
X78512770Y-83517344D01*
X78512770Y-83517341D01*
X78513576Y-83512552D01*
X78513729Y-83500000D01*
X78513040Y-83495186D01*
X78513039Y-83495176D01*
X78512157Y-83489017D01*
X78511206Y-83462172D01*
X78523038Y-83296723D01*
X78525596Y-83278934D01*
X78566999Y-83088607D01*
X78572063Y-83071359D01*
X78640136Y-82888850D01*
X78647604Y-82872498D01*
X78740952Y-82701542D01*
X78750672Y-82686418D01*
X78867402Y-82530486D01*
X78879175Y-82516900D01*
X79016900Y-82379175D01*
X79030486Y-82367402D01*
X79186418Y-82250672D01*
X79201542Y-82240952D01*
X79372498Y-82147604D01*
X79388850Y-82140136D01*
X79571359Y-82072063D01*
X79588608Y-82066999D01*
X79778936Y-82025596D01*
X79796715Y-82023039D01*
X79958605Y-82011460D01*
X79976565Y-82012207D01*
X79984845Y-82012308D01*
X79993724Y-82013691D01*
X80025286Y-82009564D01*
X80041621Y-82008500D01*
X102950633Y-82008500D01*
X102970018Y-82010000D01*
G37*
%TD.AperFunction*%
%TD*%
M02*
