%TF.GenerationSoftware,KiCad,Pcbnew,6.0.9+dfsg-1*%
%TF.CreationDate,2022-12-26T23:17:40+00:00*%
%TF.ProjectId,PMOD-USB-Device,504d4f44-2d55-4534-922d-446576696365,1*%
%TF.SameCoordinates,Original*%
%TF.FileFunction,Legend,Top*%
%TF.FilePolarity,Positive*%
%FSLAX46Y46*%
G04 Gerber Fmt 4.6, Leading zero omitted, Abs format (unit mm)*
G04 Created by KiCad (PCBNEW 6.0.9+dfsg-1) date 2022-12-26 23:17:40*
%MOMM*%
%LPD*%
G01*
G04 APERTURE LIST*
G04 Aperture macros list*
%AMRoundRect*
0 Rectangle with rounded corners*
0 $1 Rounding radius*
0 $2 $3 $4 $5 $6 $7 $8 $9 X,Y pos of 4 corners*
0 Add a 4 corners polygon primitive as box body*
4,1,4,$2,$3,$4,$5,$6,$7,$8,$9,$2,$3,0*
0 Add four circle primitives for the rounded corners*
1,1,$1+$1,$2,$3*
1,1,$1+$1,$4,$5*
1,1,$1+$1,$6,$7*
1,1,$1+$1,$8,$9*
0 Add four rect primitives between the rounded corners*
20,1,$1+$1,$2,$3,$4,$5,0*
20,1,$1+$1,$4,$5,$6,$7,0*
20,1,$1+$1,$6,$7,$8,$9,0*
20,1,$1+$1,$8,$9,$2,$3,0*%
G04 Aperture macros list end*
%ADD10C,0.100000*%
%ADD11C,0.150000*%
%ADD12C,0.075000*%
%ADD13C,0.125000*%
%ADD14C,0.120000*%
%ADD15RoundRect,0.237500X-0.250000X-0.237500X0.250000X-0.237500X0.250000X0.237500X-0.250000X0.237500X0*%
%ADD16R,1.700000X1.700000*%
%ADD17C,1.700000*%
%ADD18O,1.700000X1.700000*%
%ADD19RoundRect,0.150000X-0.512500X-0.150000X0.512500X-0.150000X0.512500X0.150000X-0.512500X0.150000X0*%
%ADD20C,0.650000*%
%ADD21R,1.450000X0.600000*%
%ADD22R,1.450000X0.300000*%
%ADD23O,1.600000X1.000000*%
%ADD24O,2.100000X1.000000*%
%ADD25RoundRect,0.237500X0.237500X-0.250000X0.237500X0.250000X-0.237500X0.250000X-0.237500X-0.250000X0*%
%ADD26RoundRect,0.237500X-0.300000X-0.237500X0.300000X-0.237500X0.300000X0.237500X-0.300000X0.237500X0*%
G04 APERTURE END LIST*
D10*
X83314285Y-83314952D02*
X83314285Y-83638761D01*
X83333333Y-83676857D01*
X83352380Y-83695904D01*
X83390476Y-83714952D01*
X83466666Y-83714952D01*
X83504761Y-83695904D01*
X83523809Y-83676857D01*
X83542857Y-83638761D01*
X83542857Y-83314952D01*
X83714285Y-83695904D02*
X83771428Y-83714952D01*
X83866666Y-83714952D01*
X83904761Y-83695904D01*
X83923809Y-83676857D01*
X83942857Y-83638761D01*
X83942857Y-83600666D01*
X83923809Y-83562571D01*
X83904761Y-83543523D01*
X83866666Y-83524476D01*
X83790476Y-83505428D01*
X83752380Y-83486380D01*
X83733333Y-83467333D01*
X83714285Y-83429238D01*
X83714285Y-83391142D01*
X83733333Y-83353047D01*
X83752380Y-83334000D01*
X83790476Y-83314952D01*
X83885714Y-83314952D01*
X83942857Y-83334000D01*
X84247619Y-83505428D02*
X84304761Y-83524476D01*
X84323809Y-83543523D01*
X84342857Y-83581619D01*
X84342857Y-83638761D01*
X84323809Y-83676857D01*
X84304761Y-83695904D01*
X84266666Y-83714952D01*
X84114285Y-83714952D01*
X84114285Y-83314952D01*
X84247619Y-83314952D01*
X84285714Y-83334000D01*
X84304761Y-83353047D01*
X84323809Y-83391142D01*
X84323809Y-83429238D01*
X84304761Y-83467333D01*
X84285714Y-83486380D01*
X84247619Y-83505428D01*
X84114285Y-83505428D01*
X84514285Y-83562571D02*
X84819047Y-83562571D01*
X85238095Y-83676857D02*
X85219047Y-83695904D01*
X85161904Y-83714952D01*
X85123809Y-83714952D01*
X85066666Y-83695904D01*
X85028571Y-83657809D01*
X85009523Y-83619714D01*
X84990476Y-83543523D01*
X84990476Y-83486380D01*
X85009523Y-83410190D01*
X85028571Y-83372095D01*
X85066666Y-83334000D01*
X85123809Y-83314952D01*
X85161904Y-83314952D01*
X85219047Y-83334000D01*
X85238095Y-83353047D01*
X85695238Y-83353047D02*
X85714285Y-83334000D01*
X85752380Y-83314952D01*
X85847619Y-83314952D01*
X85885714Y-83334000D01*
X85904761Y-83353047D01*
X85923809Y-83391142D01*
X85923809Y-83429238D01*
X85904761Y-83486380D01*
X85676190Y-83714952D01*
X85923809Y-83714952D01*
X86095238Y-83676857D02*
X86114285Y-83695904D01*
X86095238Y-83714952D01*
X86076190Y-83695904D01*
X86095238Y-83676857D01*
X86095238Y-83714952D01*
X86361904Y-83314952D02*
X86400000Y-83314952D01*
X86438095Y-83334000D01*
X86457142Y-83353047D01*
X86476190Y-83391142D01*
X86495238Y-83467333D01*
X86495238Y-83562571D01*
X86476190Y-83638761D01*
X86457142Y-83676857D01*
X86438095Y-83695904D01*
X86400000Y-83714952D01*
X86361904Y-83714952D01*
X86323809Y-83695904D01*
X86304761Y-83676857D01*
X86285714Y-83638761D01*
X86266666Y-83562571D01*
X86266666Y-83467333D01*
X86285714Y-83391142D01*
X86304761Y-83353047D01*
X86323809Y-83334000D01*
X86361904Y-83314952D01*
X86971428Y-83714952D02*
X86971428Y-83314952D01*
X87066666Y-83314952D01*
X87123809Y-83334000D01*
X87161904Y-83372095D01*
X87180952Y-83410190D01*
X87200000Y-83486380D01*
X87200000Y-83543523D01*
X87180952Y-83619714D01*
X87161904Y-83657809D01*
X87123809Y-83695904D01*
X87066666Y-83714952D01*
X86971428Y-83714952D01*
X87523809Y-83695904D02*
X87485714Y-83714952D01*
X87409523Y-83714952D01*
X87371428Y-83695904D01*
X87352380Y-83657809D01*
X87352380Y-83505428D01*
X87371428Y-83467333D01*
X87409523Y-83448285D01*
X87485714Y-83448285D01*
X87523809Y-83467333D01*
X87542857Y-83505428D01*
X87542857Y-83543523D01*
X87352380Y-83581619D01*
X87676190Y-83448285D02*
X87771428Y-83714952D01*
X87866666Y-83448285D01*
X88019047Y-83714952D02*
X88019047Y-83448285D01*
X88019047Y-83314952D02*
X88000000Y-83334000D01*
X88019047Y-83353047D01*
X88038095Y-83334000D01*
X88019047Y-83314952D01*
X88019047Y-83353047D01*
X88380952Y-83695904D02*
X88342857Y-83714952D01*
X88266666Y-83714952D01*
X88228571Y-83695904D01*
X88209523Y-83676857D01*
X88190476Y-83638761D01*
X88190476Y-83524476D01*
X88209523Y-83486380D01*
X88228571Y-83467333D01*
X88266666Y-83448285D01*
X88342857Y-83448285D01*
X88380952Y-83467333D01*
X88704761Y-83695904D02*
X88666666Y-83714952D01*
X88590476Y-83714952D01*
X88552380Y-83695904D01*
X88533333Y-83657809D01*
X88533333Y-83505428D01*
X88552380Y-83467333D01*
X88590476Y-83448285D01*
X88666666Y-83448285D01*
X88704761Y-83467333D01*
X88723809Y-83505428D01*
X88723809Y-83543523D01*
X88533333Y-83581619D01*
X89200000Y-83714952D02*
X89200000Y-83314952D01*
X89352380Y-83314952D01*
X89390476Y-83334000D01*
X89409523Y-83353047D01*
X89428571Y-83391142D01*
X89428571Y-83448285D01*
X89409523Y-83486380D01*
X89390476Y-83505428D01*
X89352380Y-83524476D01*
X89200000Y-83524476D01*
X89600000Y-83714952D02*
X89600000Y-83314952D01*
X89733333Y-83600666D01*
X89866666Y-83314952D01*
X89866666Y-83714952D01*
X90133333Y-83314952D02*
X90209523Y-83314952D01*
X90247619Y-83334000D01*
X90285714Y-83372095D01*
X90304761Y-83448285D01*
X90304761Y-83581619D01*
X90285714Y-83657809D01*
X90247619Y-83695904D01*
X90209523Y-83714952D01*
X90133333Y-83714952D01*
X90095238Y-83695904D01*
X90057142Y-83657809D01*
X90038095Y-83581619D01*
X90038095Y-83448285D01*
X90057142Y-83372095D01*
X90095238Y-83334000D01*
X90133333Y-83314952D01*
X90476190Y-83714952D02*
X90476190Y-83314952D01*
X90571428Y-83314952D01*
X90628571Y-83334000D01*
X90666666Y-83372095D01*
X90685714Y-83410190D01*
X90704761Y-83486380D01*
X90704761Y-83543523D01*
X90685714Y-83619714D01*
X90666666Y-83657809D01*
X90628571Y-83695904D01*
X90571428Y-83714952D01*
X90476190Y-83714952D01*
X81790476Y-84244666D02*
X81980952Y-84244666D01*
X81752380Y-84358952D02*
X81885714Y-83958952D01*
X82019047Y-84358952D01*
X82209523Y-84358952D02*
X82171428Y-84339904D01*
X82152380Y-84301809D01*
X82152380Y-83958952D01*
X82514285Y-84339904D02*
X82476190Y-84358952D01*
X82400000Y-84358952D01*
X82361904Y-84339904D01*
X82342857Y-84301809D01*
X82342857Y-84149428D01*
X82361904Y-84111333D01*
X82400000Y-84092285D01*
X82476190Y-84092285D01*
X82514285Y-84111333D01*
X82533333Y-84149428D01*
X82533333Y-84187523D01*
X82342857Y-84225619D01*
X82666666Y-84358952D02*
X82876190Y-84092285D01*
X82666666Y-84092285D02*
X82876190Y-84358952D01*
X83200000Y-84358952D02*
X83200000Y-84149428D01*
X83180952Y-84111333D01*
X83142857Y-84092285D01*
X83066666Y-84092285D01*
X83028571Y-84111333D01*
X83200000Y-84339904D02*
X83161904Y-84358952D01*
X83066666Y-84358952D01*
X83028571Y-84339904D01*
X83009523Y-84301809D01*
X83009523Y-84263714D01*
X83028571Y-84225619D01*
X83066666Y-84206571D01*
X83161904Y-84206571D01*
X83200000Y-84187523D01*
X83390476Y-84092285D02*
X83390476Y-84358952D01*
X83390476Y-84130380D02*
X83409523Y-84111333D01*
X83447619Y-84092285D01*
X83504761Y-84092285D01*
X83542857Y-84111333D01*
X83561904Y-84149428D01*
X83561904Y-84358952D01*
X83923809Y-84358952D02*
X83923809Y-83958952D01*
X83923809Y-84339904D02*
X83885714Y-84358952D01*
X83809523Y-84358952D01*
X83771428Y-84339904D01*
X83752380Y-84320857D01*
X83733333Y-84282761D01*
X83733333Y-84168476D01*
X83752380Y-84130380D01*
X83771428Y-84111333D01*
X83809523Y-84092285D01*
X83885714Y-84092285D01*
X83923809Y-84111333D01*
X84266666Y-84339904D02*
X84228571Y-84358952D01*
X84152380Y-84358952D01*
X84114285Y-84339904D01*
X84095238Y-84301809D01*
X84095238Y-84149428D01*
X84114285Y-84111333D01*
X84152380Y-84092285D01*
X84228571Y-84092285D01*
X84266666Y-84111333D01*
X84285714Y-84149428D01*
X84285714Y-84187523D01*
X84095238Y-84225619D01*
X84457142Y-84358952D02*
X84457142Y-84092285D01*
X84457142Y-84168476D02*
X84476190Y-84130380D01*
X84495238Y-84111333D01*
X84533333Y-84092285D01*
X84571428Y-84092285D01*
X84990476Y-83958952D02*
X84990476Y-84035142D01*
X85142857Y-83958952D02*
X85142857Y-84035142D01*
X85314285Y-84358952D02*
X85314285Y-83958952D01*
X85314285Y-84111333D02*
X85352380Y-84092285D01*
X85428571Y-84092285D01*
X85466666Y-84111333D01*
X85485714Y-84130380D01*
X85504761Y-84168476D01*
X85504761Y-84282761D01*
X85485714Y-84320857D01*
X85466666Y-84339904D01*
X85428571Y-84358952D01*
X85352380Y-84358952D01*
X85314285Y-84339904D01*
X85733333Y-84358952D02*
X85695238Y-84339904D01*
X85676190Y-84301809D01*
X85676190Y-83958952D01*
X86057142Y-84358952D02*
X86057142Y-84149428D01*
X86038095Y-84111333D01*
X86000000Y-84092285D01*
X85923809Y-84092285D01*
X85885714Y-84111333D01*
X86057142Y-84339904D02*
X86019047Y-84358952D01*
X85923809Y-84358952D01*
X85885714Y-84339904D01*
X85866666Y-84301809D01*
X85866666Y-84263714D01*
X85885714Y-84225619D01*
X85923809Y-84206571D01*
X86019047Y-84206571D01*
X86057142Y-84187523D01*
X86419047Y-84339904D02*
X86380952Y-84358952D01*
X86304761Y-84358952D01*
X86266666Y-84339904D01*
X86247619Y-84320857D01*
X86228571Y-84282761D01*
X86228571Y-84168476D01*
X86247619Y-84130380D01*
X86266666Y-84111333D01*
X86304761Y-84092285D01*
X86380952Y-84092285D01*
X86419047Y-84111333D01*
X86590476Y-84358952D02*
X86590476Y-83958952D01*
X86628571Y-84206571D02*
X86742857Y-84358952D01*
X86742857Y-84092285D02*
X86590476Y-84244666D01*
X86914285Y-84358952D02*
X86914285Y-83958952D01*
X86914285Y-84111333D02*
X86952380Y-84092285D01*
X87028571Y-84092285D01*
X87066666Y-84111333D01*
X87085714Y-84130380D01*
X87104761Y-84168476D01*
X87104761Y-84282761D01*
X87085714Y-84320857D01*
X87066666Y-84339904D01*
X87028571Y-84358952D01*
X86952380Y-84358952D01*
X86914285Y-84339904D01*
X87276190Y-84358952D02*
X87276190Y-84092285D01*
X87276190Y-83958952D02*
X87257142Y-83978000D01*
X87276190Y-83997047D01*
X87295238Y-83978000D01*
X87276190Y-83958952D01*
X87276190Y-83997047D01*
X87409523Y-84092285D02*
X87561904Y-84092285D01*
X87466666Y-83958952D02*
X87466666Y-84301809D01*
X87485714Y-84339904D01*
X87523809Y-84358952D01*
X87561904Y-84358952D01*
X87676190Y-83958952D02*
X87676190Y-84035142D01*
X87828571Y-83958952D02*
X87828571Y-84035142D01*
X88304761Y-84358952D02*
X88304761Y-83958952D01*
X88304761Y-84149428D02*
X88533333Y-84149428D01*
X88533333Y-84358952D02*
X88533333Y-83958952D01*
X88895238Y-84092285D02*
X88895238Y-84358952D01*
X88723809Y-84092285D02*
X88723809Y-84301809D01*
X88742857Y-84339904D01*
X88780952Y-84358952D01*
X88838095Y-84358952D01*
X88876190Y-84339904D01*
X88895238Y-84320857D01*
X89238095Y-84339904D02*
X89200000Y-84358952D01*
X89123809Y-84358952D01*
X89085714Y-84339904D01*
X89066666Y-84301809D01*
X89066666Y-84149428D01*
X89085714Y-84111333D01*
X89123809Y-84092285D01*
X89200000Y-84092285D01*
X89238095Y-84111333D01*
X89257142Y-84149428D01*
X89257142Y-84187523D01*
X89066666Y-84225619D01*
X89428571Y-84358952D02*
X89428571Y-84092285D01*
X89428571Y-84130380D02*
X89447619Y-84111333D01*
X89485714Y-84092285D01*
X89542857Y-84092285D01*
X89580952Y-84111333D01*
X89600000Y-84149428D01*
X89600000Y-84358952D01*
X89600000Y-84149428D02*
X89619047Y-84111333D01*
X89657142Y-84092285D01*
X89714285Y-84092285D01*
X89752380Y-84111333D01*
X89771428Y-84149428D01*
X89771428Y-84358952D01*
X90114285Y-84339904D02*
X90076190Y-84358952D01*
X90000000Y-84358952D01*
X89961904Y-84339904D01*
X89942857Y-84301809D01*
X89942857Y-84149428D01*
X89961904Y-84111333D01*
X90000000Y-84092285D01*
X90076190Y-84092285D01*
X90114285Y-84111333D01*
X90133333Y-84149428D01*
X90133333Y-84187523D01*
X89942857Y-84225619D01*
X90304761Y-84358952D02*
X90304761Y-84092285D01*
X90304761Y-84168476D02*
X90323809Y-84130380D01*
X90342857Y-84111333D01*
X90380952Y-84092285D01*
X90419047Y-84092285D01*
X90838095Y-83997047D02*
X90857142Y-83978000D01*
X90895238Y-83958952D01*
X90990476Y-83958952D01*
X91028571Y-83978000D01*
X91047619Y-83997047D01*
X91066666Y-84035142D01*
X91066666Y-84073238D01*
X91047619Y-84130380D01*
X90819047Y-84358952D01*
X91066666Y-84358952D01*
X91314285Y-83958952D02*
X91352380Y-83958952D01*
X91390476Y-83978000D01*
X91409523Y-83997047D01*
X91428571Y-84035142D01*
X91447619Y-84111333D01*
X91447619Y-84206571D01*
X91428571Y-84282761D01*
X91409523Y-84320857D01*
X91390476Y-84339904D01*
X91352380Y-84358952D01*
X91314285Y-84358952D01*
X91276190Y-84339904D01*
X91257142Y-84320857D01*
X91238095Y-84282761D01*
X91219047Y-84206571D01*
X91219047Y-84111333D01*
X91238095Y-84035142D01*
X91257142Y-83997047D01*
X91276190Y-83978000D01*
X91314285Y-83958952D01*
X91600000Y-83997047D02*
X91619047Y-83978000D01*
X91657142Y-83958952D01*
X91752380Y-83958952D01*
X91790476Y-83978000D01*
X91809523Y-83997047D01*
X91828571Y-84035142D01*
X91828571Y-84073238D01*
X91809523Y-84130380D01*
X91580952Y-84358952D01*
X91828571Y-84358952D01*
X91980952Y-83997047D02*
X92000000Y-83978000D01*
X92038095Y-83958952D01*
X92133333Y-83958952D01*
X92171428Y-83978000D01*
X92190476Y-83997047D01*
X92209523Y-84035142D01*
X92209523Y-84073238D01*
X92190476Y-84130380D01*
X91961904Y-84358952D01*
X92209523Y-84358952D01*
X83133333Y-85002952D02*
X82942857Y-85002952D01*
X82942857Y-84602952D01*
X83266666Y-85002952D02*
X83266666Y-84736285D01*
X83266666Y-84602952D02*
X83247619Y-84622000D01*
X83266666Y-84641047D01*
X83285714Y-84622000D01*
X83266666Y-84602952D01*
X83266666Y-84641047D01*
X83628571Y-84983904D02*
X83590476Y-85002952D01*
X83514285Y-85002952D01*
X83476190Y-84983904D01*
X83457142Y-84964857D01*
X83438095Y-84926761D01*
X83438095Y-84812476D01*
X83457142Y-84774380D01*
X83476190Y-84755333D01*
X83514285Y-84736285D01*
X83590476Y-84736285D01*
X83628571Y-84755333D01*
X83952380Y-84983904D02*
X83914285Y-85002952D01*
X83838095Y-85002952D01*
X83800000Y-84983904D01*
X83780952Y-84945809D01*
X83780952Y-84793428D01*
X83800000Y-84755333D01*
X83838095Y-84736285D01*
X83914285Y-84736285D01*
X83952380Y-84755333D01*
X83971428Y-84793428D01*
X83971428Y-84831523D01*
X83780952Y-84869619D01*
X84142857Y-84736285D02*
X84142857Y-85002952D01*
X84142857Y-84774380D02*
X84161904Y-84755333D01*
X84200000Y-84736285D01*
X84257142Y-84736285D01*
X84295238Y-84755333D01*
X84314285Y-84793428D01*
X84314285Y-85002952D01*
X84485714Y-84983904D02*
X84523809Y-85002952D01*
X84600000Y-85002952D01*
X84638095Y-84983904D01*
X84657142Y-84945809D01*
X84657142Y-84926761D01*
X84638095Y-84888666D01*
X84600000Y-84869619D01*
X84542857Y-84869619D01*
X84504761Y-84850571D01*
X84485714Y-84812476D01*
X84485714Y-84793428D01*
X84504761Y-84755333D01*
X84542857Y-84736285D01*
X84600000Y-84736285D01*
X84638095Y-84755333D01*
X84980952Y-84983904D02*
X84942857Y-85002952D01*
X84866666Y-85002952D01*
X84828571Y-84983904D01*
X84809523Y-84945809D01*
X84809523Y-84793428D01*
X84828571Y-84755333D01*
X84866666Y-84736285D01*
X84942857Y-84736285D01*
X84980952Y-84755333D01*
X85000000Y-84793428D01*
X85000000Y-84831523D01*
X84809523Y-84869619D01*
X85171428Y-84964857D02*
X85190476Y-84983904D01*
X85171428Y-85002952D01*
X85152380Y-84983904D01*
X85171428Y-84964857D01*
X85171428Y-85002952D01*
X85171428Y-84755333D02*
X85190476Y-84774380D01*
X85171428Y-84793428D01*
X85152380Y-84774380D01*
X85171428Y-84755333D01*
X85171428Y-84793428D01*
X85895238Y-84964857D02*
X85876190Y-84983904D01*
X85819047Y-85002952D01*
X85780952Y-85002952D01*
X85723809Y-84983904D01*
X85685714Y-84945809D01*
X85666666Y-84907714D01*
X85647619Y-84831523D01*
X85647619Y-84774380D01*
X85666666Y-84698190D01*
X85685714Y-84660095D01*
X85723809Y-84622000D01*
X85780952Y-84602952D01*
X85819047Y-84602952D01*
X85876190Y-84622000D01*
X85895238Y-84641047D01*
X86066666Y-84793428D02*
X86200000Y-84793428D01*
X86257142Y-85002952D02*
X86066666Y-85002952D01*
X86066666Y-84602952D01*
X86257142Y-84602952D01*
X86657142Y-85002952D02*
X86523809Y-84812476D01*
X86428571Y-85002952D02*
X86428571Y-84602952D01*
X86580952Y-84602952D01*
X86619047Y-84622000D01*
X86638095Y-84641047D01*
X86657142Y-84679142D01*
X86657142Y-84736285D01*
X86638095Y-84774380D01*
X86619047Y-84793428D01*
X86580952Y-84812476D01*
X86428571Y-84812476D01*
X86828571Y-85002952D02*
X86828571Y-84602952D01*
X87057142Y-85002952D01*
X87057142Y-84602952D01*
X87247619Y-84850571D02*
X87552380Y-84850571D01*
X87819047Y-84602952D02*
X87895238Y-84602952D01*
X87933333Y-84622000D01*
X87971428Y-84660095D01*
X87990476Y-84736285D01*
X87990476Y-84869619D01*
X87971428Y-84945809D01*
X87933333Y-84983904D01*
X87895238Y-85002952D01*
X87819047Y-85002952D01*
X87780952Y-84983904D01*
X87742857Y-84945809D01*
X87723809Y-84869619D01*
X87723809Y-84736285D01*
X87742857Y-84660095D01*
X87780952Y-84622000D01*
X87819047Y-84602952D01*
X88161904Y-85002952D02*
X88161904Y-84602952D01*
X88161904Y-84793428D02*
X88390476Y-84793428D01*
X88390476Y-85002952D02*
X88390476Y-84602952D01*
X88771428Y-85002952D02*
X88580952Y-85002952D01*
X88580952Y-84602952D01*
X88904761Y-84850571D02*
X89209523Y-84850571D01*
X89400000Y-85002952D02*
X89400000Y-84602952D01*
X89552380Y-84602952D01*
X89590476Y-84622000D01*
X89609523Y-84641047D01*
X89628571Y-84679142D01*
X89628571Y-84736285D01*
X89609523Y-84774380D01*
X89590476Y-84793428D01*
X89552380Y-84812476D01*
X89400000Y-84812476D01*
X89800000Y-84850571D02*
X90104761Y-84850571D01*
X90276190Y-84641047D02*
X90295238Y-84622000D01*
X90333333Y-84602952D01*
X90428571Y-84602952D01*
X90466666Y-84622000D01*
X90485714Y-84641047D01*
X90504761Y-84679142D01*
X90504761Y-84717238D01*
X90485714Y-84774380D01*
X90257142Y-85002952D01*
X90504761Y-85002952D01*
X90676190Y-84964857D02*
X90695238Y-84983904D01*
X90676190Y-85002952D01*
X90657142Y-84983904D01*
X90676190Y-84964857D01*
X90676190Y-85002952D01*
X90942857Y-84602952D02*
X90980952Y-84602952D01*
X91019047Y-84622000D01*
X91038095Y-84641047D01*
X91057142Y-84679142D01*
X91076190Y-84755333D01*
X91076190Y-84850571D01*
X91057142Y-84926761D01*
X91038095Y-84964857D01*
X91019047Y-84983904D01*
X90980952Y-85002952D01*
X90942857Y-85002952D01*
X90904761Y-84983904D01*
X90885714Y-84964857D01*
X90866666Y-84926761D01*
X90847619Y-84850571D01*
X90847619Y-84755333D01*
X90866666Y-84679142D01*
X90885714Y-84641047D01*
X90904761Y-84622000D01*
X90942857Y-84602952D01*
X79295238Y-85646952D02*
X79295238Y-85246952D01*
X79466666Y-85646952D02*
X79466666Y-85437428D01*
X79447619Y-85399333D01*
X79409523Y-85380285D01*
X79352380Y-85380285D01*
X79314285Y-85399333D01*
X79295238Y-85418380D01*
X79600000Y-85380285D02*
X79752380Y-85380285D01*
X79657142Y-85246952D02*
X79657142Y-85589809D01*
X79676190Y-85627904D01*
X79714285Y-85646952D01*
X79752380Y-85646952D01*
X79828571Y-85380285D02*
X79980952Y-85380285D01*
X79885714Y-85246952D02*
X79885714Y-85589809D01*
X79904761Y-85627904D01*
X79942857Y-85646952D01*
X79980952Y-85646952D01*
X80114285Y-85380285D02*
X80114285Y-85780285D01*
X80114285Y-85399333D02*
X80152380Y-85380285D01*
X80228571Y-85380285D01*
X80266666Y-85399333D01*
X80285714Y-85418380D01*
X80304761Y-85456476D01*
X80304761Y-85570761D01*
X80285714Y-85608857D01*
X80266666Y-85627904D01*
X80228571Y-85646952D01*
X80152380Y-85646952D01*
X80114285Y-85627904D01*
X80457142Y-85627904D02*
X80495238Y-85646952D01*
X80571428Y-85646952D01*
X80609523Y-85627904D01*
X80628571Y-85589809D01*
X80628571Y-85570761D01*
X80609523Y-85532666D01*
X80571428Y-85513619D01*
X80514285Y-85513619D01*
X80476190Y-85494571D01*
X80457142Y-85456476D01*
X80457142Y-85437428D01*
X80476190Y-85399333D01*
X80514285Y-85380285D01*
X80571428Y-85380285D01*
X80609523Y-85399333D01*
X80800000Y-85608857D02*
X80819047Y-85627904D01*
X80800000Y-85646952D01*
X80780952Y-85627904D01*
X80800000Y-85608857D01*
X80800000Y-85646952D01*
X80800000Y-85399333D02*
X80819047Y-85418380D01*
X80800000Y-85437428D01*
X80780952Y-85418380D01*
X80800000Y-85399333D01*
X80800000Y-85437428D01*
X81276190Y-85227904D02*
X80933333Y-85742190D01*
X81695238Y-85227904D02*
X81352380Y-85742190D01*
X82000000Y-85380285D02*
X82000000Y-85704095D01*
X81980952Y-85742190D01*
X81961904Y-85761238D01*
X81923809Y-85780285D01*
X81866666Y-85780285D01*
X81828571Y-85761238D01*
X82000000Y-85627904D02*
X81961904Y-85646952D01*
X81885714Y-85646952D01*
X81847619Y-85627904D01*
X81828571Y-85608857D01*
X81809523Y-85570761D01*
X81809523Y-85456476D01*
X81828571Y-85418380D01*
X81847619Y-85399333D01*
X81885714Y-85380285D01*
X81961904Y-85380285D01*
X82000000Y-85399333D01*
X82190476Y-85646952D02*
X82190476Y-85380285D01*
X82190476Y-85246952D02*
X82171428Y-85266000D01*
X82190476Y-85285047D01*
X82209523Y-85266000D01*
X82190476Y-85246952D01*
X82190476Y-85285047D01*
X82323809Y-85380285D02*
X82476190Y-85380285D01*
X82380952Y-85246952D02*
X82380952Y-85589809D01*
X82400000Y-85627904D01*
X82438095Y-85646952D01*
X82476190Y-85646952D01*
X82609523Y-85646952D02*
X82609523Y-85246952D01*
X82780952Y-85646952D02*
X82780952Y-85437428D01*
X82761904Y-85399333D01*
X82723809Y-85380285D01*
X82666666Y-85380285D01*
X82628571Y-85399333D01*
X82609523Y-85418380D01*
X83142857Y-85380285D02*
X83142857Y-85646952D01*
X82971428Y-85380285D02*
X82971428Y-85589809D01*
X82990476Y-85627904D01*
X83028571Y-85646952D01*
X83085714Y-85646952D01*
X83123809Y-85627904D01*
X83142857Y-85608857D01*
X83333333Y-85646952D02*
X83333333Y-85246952D01*
X83333333Y-85399333D02*
X83371428Y-85380285D01*
X83447619Y-85380285D01*
X83485714Y-85399333D01*
X83504761Y-85418380D01*
X83523809Y-85456476D01*
X83523809Y-85570761D01*
X83504761Y-85608857D01*
X83485714Y-85627904D01*
X83447619Y-85646952D01*
X83371428Y-85646952D01*
X83333333Y-85627904D01*
X83695238Y-85608857D02*
X83714285Y-85627904D01*
X83695238Y-85646952D01*
X83676190Y-85627904D01*
X83695238Y-85608857D01*
X83695238Y-85646952D01*
X84057142Y-85627904D02*
X84019047Y-85646952D01*
X83942857Y-85646952D01*
X83904761Y-85627904D01*
X83885714Y-85608857D01*
X83866666Y-85570761D01*
X83866666Y-85456476D01*
X83885714Y-85418380D01*
X83904761Y-85399333D01*
X83942857Y-85380285D01*
X84019047Y-85380285D01*
X84057142Y-85399333D01*
X84285714Y-85646952D02*
X84247619Y-85627904D01*
X84228571Y-85608857D01*
X84209523Y-85570761D01*
X84209523Y-85456476D01*
X84228571Y-85418380D01*
X84247619Y-85399333D01*
X84285714Y-85380285D01*
X84342857Y-85380285D01*
X84380952Y-85399333D01*
X84400000Y-85418380D01*
X84419047Y-85456476D01*
X84419047Y-85570761D01*
X84400000Y-85608857D01*
X84380952Y-85627904D01*
X84342857Y-85646952D01*
X84285714Y-85646952D01*
X84590476Y-85646952D02*
X84590476Y-85380285D01*
X84590476Y-85418380D02*
X84609523Y-85399333D01*
X84647619Y-85380285D01*
X84704761Y-85380285D01*
X84742857Y-85399333D01*
X84761904Y-85437428D01*
X84761904Y-85646952D01*
X84761904Y-85437428D02*
X84780952Y-85399333D01*
X84819047Y-85380285D01*
X84876190Y-85380285D01*
X84914285Y-85399333D01*
X84933333Y-85437428D01*
X84933333Y-85646952D01*
X85409523Y-85227904D02*
X85066666Y-85742190D01*
X85542857Y-85646952D02*
X85542857Y-85246952D01*
X85542857Y-85399333D02*
X85580952Y-85380285D01*
X85657142Y-85380285D01*
X85695238Y-85399333D01*
X85714285Y-85418380D01*
X85733333Y-85456476D01*
X85733333Y-85570761D01*
X85714285Y-85608857D01*
X85695238Y-85627904D01*
X85657142Y-85646952D01*
X85580952Y-85646952D01*
X85542857Y-85627904D01*
X85961904Y-85646952D02*
X85923809Y-85627904D01*
X85904761Y-85589809D01*
X85904761Y-85246952D01*
X86285714Y-85646952D02*
X86285714Y-85437428D01*
X86266666Y-85399333D01*
X86228571Y-85380285D01*
X86152380Y-85380285D01*
X86114285Y-85399333D01*
X86285714Y-85627904D02*
X86247619Y-85646952D01*
X86152380Y-85646952D01*
X86114285Y-85627904D01*
X86095238Y-85589809D01*
X86095238Y-85551714D01*
X86114285Y-85513619D01*
X86152380Y-85494571D01*
X86247619Y-85494571D01*
X86285714Y-85475523D01*
X86647619Y-85627904D02*
X86609523Y-85646952D01*
X86533333Y-85646952D01*
X86495238Y-85627904D01*
X86476190Y-85608857D01*
X86457142Y-85570761D01*
X86457142Y-85456476D01*
X86476190Y-85418380D01*
X86495238Y-85399333D01*
X86533333Y-85380285D01*
X86609523Y-85380285D01*
X86647619Y-85399333D01*
X86819047Y-85646952D02*
X86819047Y-85246952D01*
X86857142Y-85494571D02*
X86971428Y-85646952D01*
X86971428Y-85380285D02*
X86819047Y-85532666D01*
X87142857Y-85646952D02*
X87142857Y-85246952D01*
X87142857Y-85399333D02*
X87180952Y-85380285D01*
X87257142Y-85380285D01*
X87295238Y-85399333D01*
X87314285Y-85418380D01*
X87333333Y-85456476D01*
X87333333Y-85570761D01*
X87314285Y-85608857D01*
X87295238Y-85627904D01*
X87257142Y-85646952D01*
X87180952Y-85646952D01*
X87142857Y-85627904D01*
X87504761Y-85646952D02*
X87504761Y-85380285D01*
X87504761Y-85246952D02*
X87485714Y-85266000D01*
X87504761Y-85285047D01*
X87523809Y-85266000D01*
X87504761Y-85246952D01*
X87504761Y-85285047D01*
X87638095Y-85380285D02*
X87790476Y-85380285D01*
X87695238Y-85246952D02*
X87695238Y-85589809D01*
X87714285Y-85627904D01*
X87752380Y-85646952D01*
X87790476Y-85646952D01*
X88095238Y-85380285D02*
X88095238Y-85646952D01*
X88000000Y-85227904D02*
X87904761Y-85513619D01*
X88152380Y-85513619D01*
X88285714Y-85285047D02*
X88304761Y-85266000D01*
X88342857Y-85246952D01*
X88438095Y-85246952D01*
X88476190Y-85266000D01*
X88495238Y-85285047D01*
X88514285Y-85323142D01*
X88514285Y-85361238D01*
X88495238Y-85418380D01*
X88266666Y-85646952D01*
X88514285Y-85646952D01*
X88971428Y-85227904D02*
X88628571Y-85742190D01*
X89104761Y-85646952D02*
X89104761Y-85246952D01*
X89257142Y-85246952D01*
X89295238Y-85266000D01*
X89314285Y-85285047D01*
X89333333Y-85323142D01*
X89333333Y-85380285D01*
X89314285Y-85418380D01*
X89295238Y-85437428D01*
X89257142Y-85456476D01*
X89104761Y-85456476D01*
X89504761Y-85646952D02*
X89504761Y-85246952D01*
X89638095Y-85532666D01*
X89771428Y-85246952D01*
X89771428Y-85646952D01*
X90038095Y-85246952D02*
X90114285Y-85246952D01*
X90152380Y-85266000D01*
X90190476Y-85304095D01*
X90209523Y-85380285D01*
X90209523Y-85513619D01*
X90190476Y-85589809D01*
X90152380Y-85627904D01*
X90114285Y-85646952D01*
X90038095Y-85646952D01*
X90000000Y-85627904D01*
X89961904Y-85589809D01*
X89942857Y-85513619D01*
X89942857Y-85380285D01*
X89961904Y-85304095D01*
X90000000Y-85266000D01*
X90038095Y-85246952D01*
X90380952Y-85646952D02*
X90380952Y-85246952D01*
X90476190Y-85246952D01*
X90533333Y-85266000D01*
X90571428Y-85304095D01*
X90590476Y-85342190D01*
X90609523Y-85418380D01*
X90609523Y-85475523D01*
X90590476Y-85551714D01*
X90571428Y-85589809D01*
X90533333Y-85627904D01*
X90476190Y-85646952D01*
X90380952Y-85646952D01*
X90780952Y-85494571D02*
X91085714Y-85494571D01*
X91276190Y-85246952D02*
X91276190Y-85570761D01*
X91295238Y-85608857D01*
X91314285Y-85627904D01*
X91352380Y-85646952D01*
X91428571Y-85646952D01*
X91466666Y-85627904D01*
X91485714Y-85608857D01*
X91504761Y-85570761D01*
X91504761Y-85246952D01*
X91676190Y-85627904D02*
X91733333Y-85646952D01*
X91828571Y-85646952D01*
X91866666Y-85627904D01*
X91885714Y-85608857D01*
X91904761Y-85570761D01*
X91904761Y-85532666D01*
X91885714Y-85494571D01*
X91866666Y-85475523D01*
X91828571Y-85456476D01*
X91752380Y-85437428D01*
X91714285Y-85418380D01*
X91695238Y-85399333D01*
X91676190Y-85361238D01*
X91676190Y-85323142D01*
X91695238Y-85285047D01*
X91714285Y-85266000D01*
X91752380Y-85246952D01*
X91847619Y-85246952D01*
X91904761Y-85266000D01*
X92209523Y-85437428D02*
X92266666Y-85456476D01*
X92285714Y-85475523D01*
X92304761Y-85513619D01*
X92304761Y-85570761D01*
X92285714Y-85608857D01*
X92266666Y-85627904D01*
X92228571Y-85646952D01*
X92076190Y-85646952D01*
X92076190Y-85246952D01*
X92209523Y-85246952D01*
X92247619Y-85266000D01*
X92266666Y-85285047D01*
X92285714Y-85323142D01*
X92285714Y-85361238D01*
X92266666Y-85399333D01*
X92247619Y-85418380D01*
X92209523Y-85437428D01*
X92076190Y-85437428D01*
X92476190Y-85494571D02*
X92780952Y-85494571D01*
X92971428Y-85646952D02*
X92971428Y-85246952D01*
X93066666Y-85246952D01*
X93123809Y-85266000D01*
X93161904Y-85304095D01*
X93180952Y-85342190D01*
X93200000Y-85418380D01*
X93200000Y-85475523D01*
X93180952Y-85551714D01*
X93161904Y-85589809D01*
X93123809Y-85627904D01*
X93066666Y-85646952D01*
X92971428Y-85646952D01*
X93523809Y-85627904D02*
X93485714Y-85646952D01*
X93409523Y-85646952D01*
X93371428Y-85627904D01*
X93352380Y-85589809D01*
X93352380Y-85437428D01*
X93371428Y-85399333D01*
X93409523Y-85380285D01*
X93485714Y-85380285D01*
X93523809Y-85399333D01*
X93542857Y-85437428D01*
X93542857Y-85475523D01*
X93352380Y-85513619D01*
X93676190Y-85380285D02*
X93771428Y-85646952D01*
X93866666Y-85380285D01*
X94019047Y-85646952D02*
X94019047Y-85380285D01*
X94019047Y-85246952D02*
X94000000Y-85266000D01*
X94019047Y-85285047D01*
X94038095Y-85266000D01*
X94019047Y-85246952D01*
X94019047Y-85285047D01*
X94380952Y-85627904D02*
X94342857Y-85646952D01*
X94266666Y-85646952D01*
X94228571Y-85627904D01*
X94209523Y-85608857D01*
X94190476Y-85570761D01*
X94190476Y-85456476D01*
X94209523Y-85418380D01*
X94228571Y-85399333D01*
X94266666Y-85380285D01*
X94342857Y-85380285D01*
X94380952Y-85399333D01*
X94704761Y-85627904D02*
X94666666Y-85646952D01*
X94590476Y-85646952D01*
X94552380Y-85627904D01*
X94533333Y-85589809D01*
X94533333Y-85437428D01*
X94552380Y-85399333D01*
X94590476Y-85380285D01*
X94666666Y-85380285D01*
X94704761Y-85399333D01*
X94723809Y-85437428D01*
X94723809Y-85475523D01*
X94533333Y-85513619D01*
D11*
X96313761Y-88217047D02*
X96313761Y-87074190D01*
X98313761Y-87645619D02*
X96313761Y-87645619D01*
X96313761Y-86026571D02*
X96313761Y-85645619D01*
X96409000Y-85455142D01*
X96599476Y-85264666D01*
X96980428Y-85169428D01*
X97647095Y-85169428D01*
X98028047Y-85264666D01*
X98218523Y-85455142D01*
X98313761Y-85645619D01*
X98313761Y-86026571D01*
X98218523Y-86217047D01*
X98028047Y-86407523D01*
X97647095Y-86502761D01*
X96980428Y-86502761D01*
X96599476Y-86407523D01*
X96409000Y-86217047D01*
X96313761Y-86026571D01*
X98313761Y-84312285D02*
X96313761Y-84312285D01*
X96313761Y-83550380D01*
X96409000Y-83359904D01*
X96504238Y-83264666D01*
X96694714Y-83169428D01*
X96980428Y-83169428D01*
X97170904Y-83264666D01*
X97266142Y-83359904D01*
X97361380Y-83550380D01*
X97361380Y-84312285D01*
D12*
%TO.C,R1*%
X92750000Y-99535714D02*
X92650000Y-99392857D01*
X92578571Y-99535714D02*
X92578571Y-99235714D01*
X92692857Y-99235714D01*
X92721428Y-99250000D01*
X92735714Y-99264285D01*
X92750000Y-99292857D01*
X92750000Y-99335714D01*
X92735714Y-99364285D01*
X92721428Y-99378571D01*
X92692857Y-99392857D01*
X92578571Y-99392857D01*
X93035714Y-99535714D02*
X92864285Y-99535714D01*
X92950000Y-99535714D02*
X92950000Y-99235714D01*
X92921428Y-99278571D01*
X92892857Y-99307142D01*
X92864285Y-99321428D01*
D13*
%TO.C,J2*%
X98083333Y-96730790D02*
X98083333Y-97087933D01*
X98059523Y-97159361D01*
X98011904Y-97206980D01*
X97940476Y-97230790D01*
X97892857Y-97230790D01*
X98297619Y-96778409D02*
X98321428Y-96754600D01*
X98369047Y-96730790D01*
X98488095Y-96730790D01*
X98535714Y-96754600D01*
X98559523Y-96778409D01*
X98583333Y-96826028D01*
X98583333Y-96873647D01*
X98559523Y-96945076D01*
X98273809Y-97230790D01*
X98583333Y-97230790D01*
%TO.C,U1*%
X93592047Y-90645790D02*
X93592047Y-91050552D01*
X93615857Y-91098171D01*
X93639666Y-91121980D01*
X93687285Y-91145790D01*
X93782523Y-91145790D01*
X93830142Y-91121980D01*
X93853952Y-91098171D01*
X93877761Y-91050552D01*
X93877761Y-90645790D01*
X94377761Y-91145790D02*
X94092047Y-91145790D01*
X94234904Y-91145790D02*
X94234904Y-90645790D01*
X94187285Y-90717219D01*
X94139666Y-90764838D01*
X94092047Y-90788647D01*
D12*
%TO.C,R5*%
X92750000Y-97735714D02*
X92650000Y-97592857D01*
X92578571Y-97735714D02*
X92578571Y-97435714D01*
X92692857Y-97435714D01*
X92721428Y-97450000D01*
X92735714Y-97464285D01*
X92750000Y-97492857D01*
X92750000Y-97535714D01*
X92735714Y-97564285D01*
X92721428Y-97578571D01*
X92692857Y-97592857D01*
X92578571Y-97592857D01*
X93021428Y-97435714D02*
X92878571Y-97435714D01*
X92864285Y-97578571D01*
X92878571Y-97564285D01*
X92907142Y-97550000D01*
X92978571Y-97550000D01*
X93007142Y-97564285D01*
X93021428Y-97578571D01*
X93035714Y-97607142D01*
X93035714Y-97678571D01*
X93021428Y-97707142D01*
X93007142Y-97721428D01*
X92978571Y-97735714D01*
X92907142Y-97735714D01*
X92878571Y-97721428D01*
X92864285Y-97707142D01*
%TO.C,R3*%
X92750000Y-98335714D02*
X92650000Y-98192857D01*
X92578571Y-98335714D02*
X92578571Y-98035714D01*
X92692857Y-98035714D01*
X92721428Y-98050000D01*
X92735714Y-98064285D01*
X92750000Y-98092857D01*
X92750000Y-98135714D01*
X92735714Y-98164285D01*
X92721428Y-98178571D01*
X92692857Y-98192857D01*
X92578571Y-98192857D01*
X92850000Y-98035714D02*
X93035714Y-98035714D01*
X92935714Y-98150000D01*
X92978571Y-98150000D01*
X93007142Y-98164285D01*
X93021428Y-98178571D01*
X93035714Y-98207142D01*
X93035714Y-98278571D01*
X93021428Y-98307142D01*
X93007142Y-98321428D01*
X92978571Y-98335714D01*
X92892857Y-98335714D01*
X92864285Y-98321428D01*
X92850000Y-98307142D01*
D13*
%TO.C,J1*%
X81083333Y-87226190D02*
X81083333Y-87583333D01*
X81059523Y-87654761D01*
X81011904Y-87702380D01*
X80940476Y-87726190D01*
X80892857Y-87726190D01*
X81583333Y-87726190D02*
X81297619Y-87726190D01*
X81440476Y-87726190D02*
X81440476Y-87226190D01*
X81392857Y-87297619D01*
X81345238Y-87345238D01*
X81297619Y-87369047D01*
D12*
%TO.C,R4*%
X92750000Y-97135714D02*
X92650000Y-96992857D01*
X92578571Y-97135714D02*
X92578571Y-96835714D01*
X92692857Y-96835714D01*
X92721428Y-96850000D01*
X92735714Y-96864285D01*
X92750000Y-96892857D01*
X92750000Y-96935714D01*
X92735714Y-96964285D01*
X92721428Y-96978571D01*
X92692857Y-96992857D01*
X92578571Y-96992857D01*
X93007142Y-96935714D02*
X93007142Y-97135714D01*
X92935714Y-96821428D02*
X92864285Y-97035714D01*
X93050000Y-97035714D01*
D13*
%TO.C,R6*%
X97166666Y-89476190D02*
X97000000Y-89238095D01*
X96880952Y-89476190D02*
X96880952Y-88976190D01*
X97071428Y-88976190D01*
X97119047Y-89000000D01*
X97142857Y-89023809D01*
X97166666Y-89071428D01*
X97166666Y-89142857D01*
X97142857Y-89190476D01*
X97119047Y-89214285D01*
X97071428Y-89238095D01*
X96880952Y-89238095D01*
X97595238Y-88976190D02*
X97500000Y-88976190D01*
X97452380Y-89000000D01*
X97428571Y-89023809D01*
X97380952Y-89095238D01*
X97357142Y-89190476D01*
X97357142Y-89380952D01*
X97380952Y-89428571D01*
X97404761Y-89452380D01*
X97452380Y-89476190D01*
X97547619Y-89476190D01*
X97595238Y-89452380D01*
X97619047Y-89428571D01*
X97642857Y-89380952D01*
X97642857Y-89261904D01*
X97619047Y-89214285D01*
X97595238Y-89190476D01*
X97547619Y-89166666D01*
X97452380Y-89166666D01*
X97404761Y-89190476D01*
X97380952Y-89214285D01*
X97357142Y-89261904D01*
D12*
%TO.C,R2*%
X92750000Y-96535714D02*
X92650000Y-96392857D01*
X92578571Y-96535714D02*
X92578571Y-96235714D01*
X92692857Y-96235714D01*
X92721428Y-96250000D01*
X92735714Y-96264285D01*
X92750000Y-96292857D01*
X92750000Y-96335714D01*
X92735714Y-96364285D01*
X92721428Y-96378571D01*
X92692857Y-96392857D01*
X92578571Y-96392857D01*
X92864285Y-96264285D02*
X92878571Y-96250000D01*
X92907142Y-96235714D01*
X92978571Y-96235714D01*
X93007142Y-96250000D01*
X93021428Y-96264285D01*
X93035714Y-96292857D01*
X93035714Y-96321428D01*
X93021428Y-96364285D01*
X92850000Y-96535714D01*
X93035714Y-96535714D01*
%TO.C,C1*%
X92750000Y-98907142D02*
X92735714Y-98921428D01*
X92692857Y-98935714D01*
X92664285Y-98935714D01*
X92621428Y-98921428D01*
X92592857Y-98892857D01*
X92578571Y-98864285D01*
X92564285Y-98807142D01*
X92564285Y-98764285D01*
X92578571Y-98707142D01*
X92592857Y-98678571D01*
X92621428Y-98650000D01*
X92664285Y-98635714D01*
X92692857Y-98635714D01*
X92735714Y-98650000D01*
X92750000Y-98664285D01*
X93035714Y-98935714D02*
X92864285Y-98935714D01*
X92950000Y-98935714D02*
X92950000Y-98635714D01*
X92921428Y-98678571D01*
X92892857Y-98707142D01*
X92864285Y-98721428D01*
%TO.C,C2*%
X92750000Y-95907142D02*
X92735714Y-95921428D01*
X92692857Y-95935714D01*
X92664285Y-95935714D01*
X92621428Y-95921428D01*
X92592857Y-95892857D01*
X92578571Y-95864285D01*
X92564285Y-95807142D01*
X92564285Y-95764285D01*
X92578571Y-95707142D01*
X92592857Y-95678571D01*
X92621428Y-95650000D01*
X92664285Y-95635714D01*
X92692857Y-95635714D01*
X92735714Y-95650000D01*
X92750000Y-95664285D01*
X92864285Y-95664285D02*
X92878571Y-95650000D01*
X92907142Y-95635714D01*
X92978571Y-95635714D01*
X93007142Y-95650000D01*
X93021428Y-95664285D01*
X93035714Y-95692857D01*
X93035714Y-95721428D01*
X93021428Y-95764285D01*
X92850000Y-95935714D01*
X93035714Y-95935714D01*
D14*
%TO.C,R1*%
X89018376Y-99607900D02*
X89527824Y-99607900D01*
X89018376Y-98562900D02*
X89527824Y-98562900D01*
%TO.C,J2*%
X99304000Y-84419600D02*
X99304000Y-83149600D01*
X101616929Y-91659600D02*
X102071071Y-91659600D01*
X101616929Y-97499600D02*
X102071071Y-97499600D01*
X101616929Y-87339600D02*
X102071071Y-87339600D01*
X101616929Y-86579600D02*
X102071071Y-86579600D01*
X101684000Y-84039600D02*
X102071071Y-84039600D01*
X99304000Y-83149600D02*
X100574000Y-83149600D01*
X101616929Y-96739600D02*
X102071071Y-96739600D01*
X101616929Y-94959600D02*
X102071071Y-94959600D01*
X101684000Y-84799600D02*
X102071071Y-84799600D01*
X101616929Y-89879600D02*
X102071071Y-89879600D01*
X101616929Y-92419600D02*
X102071071Y-92419600D01*
X101616929Y-94199600D02*
X102071071Y-94199600D01*
X101616929Y-89119600D02*
X102071071Y-89119600D01*
%TO.C,U1*%
X93973000Y-94879600D02*
X94773000Y-94879600D01*
X93973000Y-91759600D02*
X92173000Y-91759600D01*
X93973000Y-94879600D02*
X93173000Y-94879600D01*
X93973000Y-91759600D02*
X94773000Y-91759600D01*
%TO.C,R5*%
X89024376Y-93609900D02*
X89533824Y-93609900D01*
X89024376Y-94654900D02*
X89533824Y-94654900D01*
%TO.C,R3*%
X89018376Y-96305900D02*
X89527824Y-96305900D01*
X89018376Y-95260900D02*
X89527824Y-95260900D01*
%TO.C,J1*%
X82340000Y-89102200D02*
X80340000Y-89102200D01*
X82340000Y-98502200D02*
X80340000Y-98502200D01*
%TO.C,R4*%
X89024376Y-93003900D02*
X89533824Y-93003900D01*
X89024376Y-91958900D02*
X89533824Y-91958900D01*
%TO.C,R6*%
X96752500Y-91669324D02*
X96752500Y-91159876D01*
X97797500Y-91669324D02*
X97797500Y-91159876D01*
%TO.C,R2*%
X89018376Y-91352900D02*
X89527824Y-91352900D01*
X89018376Y-90307900D02*
X89527824Y-90307900D01*
%TO.C,C1*%
X89126833Y-96924400D02*
X89419367Y-96924400D01*
X89126833Y-97944400D02*
X89419367Y-97944400D01*
%TO.C,C2*%
X89134733Y-89664000D02*
X89427267Y-89664000D01*
X89134733Y-88644000D02*
X89427267Y-88644000D01*
%TD*%
%LPC*%
D15*
%TO.C,R1*%
X88360600Y-99085400D03*
X90185600Y-99085400D03*
%TD*%
D16*
%TO.C,J2*%
X100574000Y-97119600D03*
D17*
X100574000Y-94579600D03*
X100574000Y-92039600D03*
X100574000Y-89499600D03*
X100574000Y-86959600D03*
X100574000Y-84419600D03*
D18*
X103114000Y-97119600D03*
D17*
X103114000Y-94579600D03*
X103114000Y-92039600D03*
X103114000Y-89499600D03*
X103114000Y-86959600D03*
X103114000Y-84419600D03*
%TD*%
D19*
%TO.C,U1*%
X92835500Y-92369600D03*
X92835500Y-93319600D03*
X92835500Y-94269600D03*
X95110500Y-94269600D03*
X95110500Y-93319600D03*
X95110500Y-92369600D03*
%TD*%
D15*
%TO.C,R5*%
X88366600Y-94132400D03*
X90191600Y-94132400D03*
%TD*%
%TO.C,R3*%
X88360600Y-95783400D03*
X90185600Y-95783400D03*
%TD*%
D20*
%TO.C,J1*%
X83040000Y-96692200D03*
X83040000Y-90912200D03*
D21*
X84485000Y-90552200D03*
X84485000Y-91352200D03*
D22*
X84485000Y-92552200D03*
X84485000Y-93552200D03*
X84485000Y-94052200D03*
X84485000Y-95052200D03*
D21*
X84485000Y-96252200D03*
X84485000Y-97052200D03*
X84485000Y-97052200D03*
X84485000Y-96252200D03*
D22*
X84485000Y-95552200D03*
X84485000Y-94552200D03*
X84485000Y-93052200D03*
X84485000Y-92052200D03*
D21*
X84485000Y-91352200D03*
X84485000Y-90552200D03*
D23*
X79390000Y-98122200D03*
X79390000Y-89482200D03*
D24*
X83570000Y-89482200D03*
X83570000Y-98122200D03*
%TD*%
D15*
%TO.C,R4*%
X88366600Y-92481400D03*
X90191600Y-92481400D03*
%TD*%
D25*
%TO.C,R6*%
X97275000Y-92327100D03*
X97275000Y-90502100D03*
%TD*%
D15*
%TO.C,R2*%
X88360600Y-90830400D03*
X90185600Y-90830400D03*
%TD*%
D26*
%TO.C,C1*%
X88410600Y-97434400D03*
X90135600Y-97434400D03*
%TD*%
%TO.C,C2*%
X88418500Y-89154000D03*
X90143500Y-89154000D03*
%TD*%
M02*
