%TF.GenerationSoftware,KiCad,Pcbnew,6.0.9+dfsg-1*%
%TF.CreationDate,2022-12-26T23:17:44+00:00*%
%TF.ProjectId,PMOD-USB-Device,504d4f44-2d55-4534-922d-446576696365,1*%
%TF.SameCoordinates,Original*%
%TF.FileFunction,Drillmap*%
%TF.FilePolarity,Positive*%
%FSLAX45Y45*%
G04 Gerber Fmt 4.5, Leading zero omitted, Abs format (unit mm)*
G04 Created by KiCad (PCBNEW 6.0.9+dfsg-1) date 2022-12-26 23:17:44*
%MOMM*%
%LPD*%
G01*
G04 APERTURE LIST*
%ADD10C,0.100000*%
%ADD11C,0.200000*%
%ADD12C,0.040000*%
%ADD13C,0.060000*%
G04 APERTURE END LIST*
D10*
X10300000Y-8150000D02*
X8000000Y-8150000D01*
X8000000Y-10000000D02*
X10300000Y-10000000D01*
X8000000Y-8150000D02*
G75*
G03*
X7800000Y-8350000I0J-200000D01*
G01*
X7800000Y-8350000D02*
X7800000Y-9800000D01*
X10500000Y-9800000D02*
X10500000Y-8350000D01*
X7800000Y-9800000D02*
G75*
G03*
X8000000Y-10000000I200000J0D01*
G01*
X10500000Y-8350000D02*
G75*
G03*
X10300000Y-8150000I-200000J0D01*
G01*
X10300000Y-10000000D02*
G75*
G03*
X10500000Y-9800000I0J200000D01*
G01*
D11*
D12*
X8577900Y-8946200D02*
X8617900Y-8986200D01*
X8617900Y-8946200D02*
X8577900Y-8986200D01*
X8577900Y-9060500D02*
X8617900Y-9100500D01*
X8617900Y-9060500D02*
X8577900Y-9100500D01*
X8577900Y-9644700D02*
X8617900Y-9684700D01*
X8617900Y-9644700D02*
X8577900Y-9684700D01*
X8577900Y-9759000D02*
X8617900Y-9799000D01*
X8617900Y-9759000D02*
X8577900Y-9799000D01*
X9136700Y-9311960D02*
X9176700Y-9351960D01*
X9176700Y-9311960D02*
X9136700Y-9351960D01*
X9139240Y-8895400D02*
X9179240Y-8935400D01*
X9179240Y-8895400D02*
X9139240Y-8935400D01*
X9139240Y-9063040D02*
X9179240Y-9103040D01*
X9179240Y-9063040D02*
X9139240Y-9103040D01*
X9139240Y-9560880D02*
X9179240Y-9600880D01*
X9179240Y-9560880D02*
X9139240Y-9600880D01*
X9139240Y-9723440D02*
X9179240Y-9763440D01*
X9179240Y-9723440D02*
X9139240Y-9763440D01*
X9139240Y-9886000D02*
X9179240Y-9926000D01*
X9179240Y-9886000D02*
X9139240Y-9926000D01*
X9606600Y-9311960D02*
X9646600Y-9351960D01*
X9646600Y-9311960D02*
X9606600Y-9351960D01*
D13*
X7969000Y-8948220D02*
G75*
G03*
X7969000Y-8948220I-30000J0D01*
G01*
D11*
X7969000Y-8918220D02*
X7909000Y-8918220D01*
X7969000Y-8978220D02*
X7909000Y-8978220D01*
X7909000Y-8918220D02*
G75*
G03*
X7909000Y-8978220I0J-30000D01*
G01*
X7969000Y-8978220D02*
G75*
G03*
X7969000Y-8918220I0J30000D01*
G01*
D13*
X7969000Y-9812220D02*
G75*
G03*
X7969000Y-9812220I-30000J0D01*
G01*
D11*
X7969000Y-9782220D02*
X7909000Y-9782220D01*
X7969000Y-9842220D02*
X7909000Y-9842220D01*
X7909000Y-9782220D02*
G75*
G03*
X7909000Y-9842220I0J-30000D01*
G01*
X7969000Y-9842220D02*
G75*
G03*
X7969000Y-9782220I0J30000D01*
G01*
D13*
X8387000Y-8948220D02*
G75*
G03*
X8387000Y-8948220I-30000J0D01*
G01*
D11*
X8412000Y-8918220D02*
X8302000Y-8918220D01*
X8412000Y-8978220D02*
X8302000Y-8978220D01*
X8302000Y-8918220D02*
G75*
G03*
X8302000Y-8978220I0J-30000D01*
G01*
X8412000Y-8978220D02*
G75*
G03*
X8412000Y-8918220I0J30000D01*
G01*
D13*
X8387000Y-9812220D02*
G75*
G03*
X8387000Y-9812220I-30000J0D01*
G01*
D11*
X8412000Y-9782220D02*
X8302000Y-9782220D01*
X8412000Y-9842220D02*
X8302000Y-9842220D01*
X8302000Y-9782220D02*
G75*
G03*
X8302000Y-9842220I0J-30000D01*
G01*
X8412000Y-9842220D02*
G75*
G03*
X8412000Y-9782220I0J30000D01*
G01*
D10*
X10057400Y-8391960D02*
X10057400Y-8491960D01*
X10007400Y-8441960D02*
X10107400Y-8441960D01*
X10057400Y-8645960D02*
X10057400Y-8745960D01*
X10007400Y-8695960D02*
X10107400Y-8695960D01*
X10057400Y-8899960D02*
X10057400Y-8999960D01*
X10007400Y-8949960D02*
X10107400Y-8949960D01*
X10057400Y-9153960D02*
X10057400Y-9253960D01*
X10007400Y-9203960D02*
X10107400Y-9203960D01*
X10057400Y-9407960D02*
X10057400Y-9507960D01*
X10007400Y-9457960D02*
X10107400Y-9457960D01*
X10057400Y-9661960D02*
X10057400Y-9761960D01*
X10007400Y-9711960D02*
X10107400Y-9711960D01*
X10311400Y-8391960D02*
X10311400Y-8491960D01*
X10261400Y-8441960D02*
X10361400Y-8441960D01*
X10311400Y-8645960D02*
X10311400Y-8745960D01*
X10261400Y-8695960D02*
X10361400Y-8695960D01*
X10311400Y-8899960D02*
X10311400Y-8999960D01*
X10261400Y-8949960D02*
X10361400Y-8949960D01*
X10311400Y-9153960D02*
X10311400Y-9253960D01*
X10261400Y-9203960D02*
X10361400Y-9203960D01*
X10311400Y-9407960D02*
X10311400Y-9507960D01*
X10261400Y-9457960D02*
X10361400Y-9457960D01*
X10311400Y-9661960D02*
X10311400Y-9761960D01*
X10261400Y-9711960D02*
X10361400Y-9711960D01*
D11*
X8052619Y-10315476D02*
X8052619Y-10115476D01*
X8100238Y-10115476D01*
X8128809Y-10125000D01*
X8147857Y-10144048D01*
X8157381Y-10163095D01*
X8166905Y-10201190D01*
X8166905Y-10229762D01*
X8157381Y-10267857D01*
X8147857Y-10286905D01*
X8128809Y-10305952D01*
X8100238Y-10315476D01*
X8052619Y-10315476D01*
X8252619Y-10315476D02*
X8252619Y-10182143D01*
X8252619Y-10220238D02*
X8262143Y-10201190D01*
X8271667Y-10191667D01*
X8290714Y-10182143D01*
X8309762Y-10182143D01*
X8376428Y-10315476D02*
X8376428Y-10182143D01*
X8376428Y-10115476D02*
X8366905Y-10125000D01*
X8376428Y-10134524D01*
X8385952Y-10125000D01*
X8376428Y-10115476D01*
X8376428Y-10134524D01*
X8500238Y-10315476D02*
X8481190Y-10305952D01*
X8471667Y-10286905D01*
X8471667Y-10115476D01*
X8605000Y-10315476D02*
X8585952Y-10305952D01*
X8576429Y-10286905D01*
X8576429Y-10115476D01*
X8833571Y-10315476D02*
X8833571Y-10115476D01*
X8900238Y-10258333D01*
X8966905Y-10115476D01*
X8966905Y-10315476D01*
X9147857Y-10315476D02*
X9147857Y-10210714D01*
X9138333Y-10191667D01*
X9119286Y-10182143D01*
X9081190Y-10182143D01*
X9062143Y-10191667D01*
X9147857Y-10305952D02*
X9128810Y-10315476D01*
X9081190Y-10315476D01*
X9062143Y-10305952D01*
X9052619Y-10286905D01*
X9052619Y-10267857D01*
X9062143Y-10248810D01*
X9081190Y-10239286D01*
X9128810Y-10239286D01*
X9147857Y-10229762D01*
X9243095Y-10182143D02*
X9243095Y-10382143D01*
X9243095Y-10191667D02*
X9262143Y-10182143D01*
X9300238Y-10182143D01*
X9319286Y-10191667D01*
X9328810Y-10201190D01*
X9338333Y-10220238D01*
X9338333Y-10277381D01*
X9328810Y-10296429D01*
X9319286Y-10305952D01*
X9300238Y-10315476D01*
X9262143Y-10315476D01*
X9243095Y-10305952D01*
X9424048Y-10296429D02*
X9433571Y-10305952D01*
X9424048Y-10315476D01*
X9414524Y-10305952D01*
X9424048Y-10296429D01*
X9424048Y-10315476D01*
X9424048Y-10191667D02*
X9433571Y-10201190D01*
X9424048Y-10210714D01*
X9414524Y-10201190D01*
X9424048Y-10191667D01*
X9424048Y-10210714D01*
D12*
X7755000Y-10625000D02*
X7795000Y-10665000D01*
X7795000Y-10625000D02*
X7755000Y-10665000D01*
D11*
X8090714Y-10535476D02*
X8109762Y-10535476D01*
X8128809Y-10545000D01*
X8138333Y-10554524D01*
X8147857Y-10573571D01*
X8157381Y-10611667D01*
X8157381Y-10659286D01*
X8147857Y-10697381D01*
X8138333Y-10716429D01*
X8128809Y-10725952D01*
X8109762Y-10735476D01*
X8090714Y-10735476D01*
X8071667Y-10725952D01*
X8062143Y-10716429D01*
X8052619Y-10697381D01*
X8043095Y-10659286D01*
X8043095Y-10611667D01*
X8052619Y-10573571D01*
X8062143Y-10554524D01*
X8071667Y-10545000D01*
X8090714Y-10535476D01*
X8243095Y-10716429D02*
X8252619Y-10725952D01*
X8243095Y-10735476D01*
X8233571Y-10725952D01*
X8243095Y-10716429D01*
X8243095Y-10735476D01*
X8424048Y-10602143D02*
X8424048Y-10735476D01*
X8376428Y-10525952D02*
X8328809Y-10668810D01*
X8452619Y-10668810D01*
X8566905Y-10535476D02*
X8585952Y-10535476D01*
X8605000Y-10545000D01*
X8614524Y-10554524D01*
X8624048Y-10573571D01*
X8633571Y-10611667D01*
X8633571Y-10659286D01*
X8624048Y-10697381D01*
X8614524Y-10716429D01*
X8605000Y-10725952D01*
X8585952Y-10735476D01*
X8566905Y-10735476D01*
X8547857Y-10725952D01*
X8538333Y-10716429D01*
X8528810Y-10697381D01*
X8519286Y-10659286D01*
X8519286Y-10611667D01*
X8528810Y-10573571D01*
X8538333Y-10554524D01*
X8547857Y-10545000D01*
X8566905Y-10535476D01*
X8757381Y-10535476D02*
X8776429Y-10535476D01*
X8795476Y-10545000D01*
X8805000Y-10554524D01*
X8814524Y-10573571D01*
X8824048Y-10611667D01*
X8824048Y-10659286D01*
X8814524Y-10697381D01*
X8805000Y-10716429D01*
X8795476Y-10725952D01*
X8776429Y-10735476D01*
X8757381Y-10735476D01*
X8738333Y-10725952D01*
X8728810Y-10716429D01*
X8719286Y-10697381D01*
X8709762Y-10659286D01*
X8709762Y-10611667D01*
X8719286Y-10573571D01*
X8728810Y-10554524D01*
X8738333Y-10545000D01*
X8757381Y-10535476D01*
X8909762Y-10735476D02*
X8909762Y-10602143D01*
X8909762Y-10621190D02*
X8919286Y-10611667D01*
X8938333Y-10602143D01*
X8966905Y-10602143D01*
X8985952Y-10611667D01*
X8995476Y-10630714D01*
X8995476Y-10735476D01*
X8995476Y-10630714D02*
X9005000Y-10611667D01*
X9024048Y-10602143D01*
X9052619Y-10602143D01*
X9071667Y-10611667D01*
X9081190Y-10630714D01*
X9081190Y-10735476D01*
X9176429Y-10735476D02*
X9176429Y-10602143D01*
X9176429Y-10621190D02*
X9185952Y-10611667D01*
X9205000Y-10602143D01*
X9233571Y-10602143D01*
X9252619Y-10611667D01*
X9262143Y-10630714D01*
X9262143Y-10735476D01*
X9262143Y-10630714D02*
X9271667Y-10611667D01*
X9290714Y-10602143D01*
X9319286Y-10602143D01*
X9338333Y-10611667D01*
X9347857Y-10630714D01*
X9347857Y-10735476D01*
X9738333Y-10525952D02*
X9566905Y-10783095D01*
X9995476Y-10535476D02*
X10014524Y-10535476D01*
X10033571Y-10545000D01*
X10043095Y-10554524D01*
X10052619Y-10573571D01*
X10062143Y-10611667D01*
X10062143Y-10659286D01*
X10052619Y-10697381D01*
X10043095Y-10716429D01*
X10033571Y-10725952D01*
X10014524Y-10735476D01*
X9995476Y-10735476D01*
X9976429Y-10725952D01*
X9966905Y-10716429D01*
X9957381Y-10697381D01*
X9947857Y-10659286D01*
X9947857Y-10611667D01*
X9957381Y-10573571D01*
X9966905Y-10554524D01*
X9976429Y-10545000D01*
X9995476Y-10535476D01*
X10147857Y-10716429D02*
X10157381Y-10725952D01*
X10147857Y-10735476D01*
X10138333Y-10725952D01*
X10147857Y-10716429D01*
X10147857Y-10735476D01*
X10281190Y-10535476D02*
X10300238Y-10535476D01*
X10319286Y-10545000D01*
X10328810Y-10554524D01*
X10338333Y-10573571D01*
X10347857Y-10611667D01*
X10347857Y-10659286D01*
X10338333Y-10697381D01*
X10328810Y-10716429D01*
X10319286Y-10725952D01*
X10300238Y-10735476D01*
X10281190Y-10735476D01*
X10262143Y-10725952D01*
X10252619Y-10716429D01*
X10243095Y-10697381D01*
X10233571Y-10659286D01*
X10233571Y-10611667D01*
X10243095Y-10573571D01*
X10252619Y-10554524D01*
X10262143Y-10545000D01*
X10281190Y-10535476D01*
X10538333Y-10735476D02*
X10424048Y-10735476D01*
X10481190Y-10735476D02*
X10481190Y-10535476D01*
X10462143Y-10564048D01*
X10443095Y-10583095D01*
X10424048Y-10592619D01*
X10719286Y-10535476D02*
X10624048Y-10535476D01*
X10614524Y-10630714D01*
X10624048Y-10621190D01*
X10643095Y-10611667D01*
X10690714Y-10611667D01*
X10709762Y-10621190D01*
X10719286Y-10630714D01*
X10728810Y-10649762D01*
X10728810Y-10697381D01*
X10719286Y-10716429D01*
X10709762Y-10725952D01*
X10690714Y-10735476D01*
X10643095Y-10735476D01*
X10624048Y-10725952D01*
X10614524Y-10716429D01*
X10795476Y-10535476D02*
X10928810Y-10535476D01*
X10843095Y-10735476D01*
X10995476Y-10535476D02*
X10995476Y-10573571D01*
X11071667Y-10535476D02*
X11071667Y-10573571D01*
X11366905Y-10811667D02*
X11357381Y-10802143D01*
X11338333Y-10773571D01*
X11328809Y-10754524D01*
X11319286Y-10725952D01*
X11309762Y-10678333D01*
X11309762Y-10640238D01*
X11319286Y-10592619D01*
X11328809Y-10564048D01*
X11338333Y-10545000D01*
X11357381Y-10516429D01*
X11366905Y-10506905D01*
X11547857Y-10735476D02*
X11433571Y-10735476D01*
X11490714Y-10735476D02*
X11490714Y-10535476D01*
X11471667Y-10564048D01*
X11452619Y-10583095D01*
X11433571Y-10592619D01*
X11738333Y-10735476D02*
X11624048Y-10735476D01*
X11681190Y-10735476D02*
X11681190Y-10535476D01*
X11662143Y-10564048D01*
X11643095Y-10583095D01*
X11624048Y-10592619D01*
X11976428Y-10735476D02*
X11976428Y-10535476D01*
X12062143Y-10735476D02*
X12062143Y-10630714D01*
X12052619Y-10611667D01*
X12033571Y-10602143D01*
X12005000Y-10602143D01*
X11985952Y-10611667D01*
X11976428Y-10621190D01*
X12185952Y-10735476D02*
X12166905Y-10725952D01*
X12157381Y-10716429D01*
X12147857Y-10697381D01*
X12147857Y-10640238D01*
X12157381Y-10621190D01*
X12166905Y-10611667D01*
X12185952Y-10602143D01*
X12214524Y-10602143D01*
X12233571Y-10611667D01*
X12243095Y-10621190D01*
X12252619Y-10640238D01*
X12252619Y-10697381D01*
X12243095Y-10716429D01*
X12233571Y-10725952D01*
X12214524Y-10735476D01*
X12185952Y-10735476D01*
X12366905Y-10735476D02*
X12347857Y-10725952D01*
X12338333Y-10706905D01*
X12338333Y-10535476D01*
X12519286Y-10725952D02*
X12500238Y-10735476D01*
X12462143Y-10735476D01*
X12443095Y-10725952D01*
X12433571Y-10706905D01*
X12433571Y-10630714D01*
X12443095Y-10611667D01*
X12462143Y-10602143D01*
X12500238Y-10602143D01*
X12519286Y-10611667D01*
X12528809Y-10630714D01*
X12528809Y-10649762D01*
X12433571Y-10668810D01*
X12605000Y-10725952D02*
X12624048Y-10735476D01*
X12662143Y-10735476D01*
X12681190Y-10725952D01*
X12690714Y-10706905D01*
X12690714Y-10697381D01*
X12681190Y-10678333D01*
X12662143Y-10668810D01*
X12633571Y-10668810D01*
X12614524Y-10659286D01*
X12605000Y-10640238D01*
X12605000Y-10630714D01*
X12614524Y-10611667D01*
X12633571Y-10602143D01*
X12662143Y-10602143D01*
X12681190Y-10611667D01*
X12757381Y-10811667D02*
X12766905Y-10802143D01*
X12785952Y-10773571D01*
X12795476Y-10754524D01*
X12805000Y-10725952D01*
X12814524Y-10678333D01*
X12814524Y-10640238D01*
X12805000Y-10592619D01*
X12795476Y-10564048D01*
X12785952Y-10545000D01*
X12766905Y-10516429D01*
X12757381Y-10506905D01*
D13*
X7795000Y-10909000D02*
G75*
G03*
X7795000Y-10909000I-30000J0D01*
G01*
D11*
X8090714Y-10799476D02*
X8109762Y-10799476D01*
X8128809Y-10809000D01*
X8138333Y-10818524D01*
X8147857Y-10837571D01*
X8157381Y-10875667D01*
X8157381Y-10923286D01*
X8147857Y-10961381D01*
X8138333Y-10980429D01*
X8128809Y-10989952D01*
X8109762Y-10999476D01*
X8090714Y-10999476D01*
X8071667Y-10989952D01*
X8062143Y-10980429D01*
X8052619Y-10961381D01*
X8043095Y-10923286D01*
X8043095Y-10875667D01*
X8052619Y-10837571D01*
X8062143Y-10818524D01*
X8071667Y-10809000D01*
X8090714Y-10799476D01*
X8243095Y-10980429D02*
X8252619Y-10989952D01*
X8243095Y-10999476D01*
X8233571Y-10989952D01*
X8243095Y-10980429D01*
X8243095Y-10999476D01*
X8424048Y-10799476D02*
X8385952Y-10799476D01*
X8366905Y-10809000D01*
X8357381Y-10818524D01*
X8338333Y-10847095D01*
X8328809Y-10885190D01*
X8328809Y-10961381D01*
X8338333Y-10980429D01*
X8347857Y-10989952D01*
X8366905Y-10999476D01*
X8405000Y-10999476D01*
X8424048Y-10989952D01*
X8433571Y-10980429D01*
X8443095Y-10961381D01*
X8443095Y-10913762D01*
X8433571Y-10894714D01*
X8424048Y-10885190D01*
X8405000Y-10875667D01*
X8366905Y-10875667D01*
X8347857Y-10885190D01*
X8338333Y-10894714D01*
X8328809Y-10913762D01*
X8566905Y-10799476D02*
X8585952Y-10799476D01*
X8605000Y-10809000D01*
X8614524Y-10818524D01*
X8624048Y-10837571D01*
X8633571Y-10875667D01*
X8633571Y-10923286D01*
X8624048Y-10961381D01*
X8614524Y-10980429D01*
X8605000Y-10989952D01*
X8585952Y-10999476D01*
X8566905Y-10999476D01*
X8547857Y-10989952D01*
X8538333Y-10980429D01*
X8528810Y-10961381D01*
X8519286Y-10923286D01*
X8519286Y-10875667D01*
X8528810Y-10837571D01*
X8538333Y-10818524D01*
X8547857Y-10809000D01*
X8566905Y-10799476D01*
X8757381Y-10799476D02*
X8776429Y-10799476D01*
X8795476Y-10809000D01*
X8805000Y-10818524D01*
X8814524Y-10837571D01*
X8824048Y-10875667D01*
X8824048Y-10923286D01*
X8814524Y-10961381D01*
X8805000Y-10980429D01*
X8795476Y-10989952D01*
X8776429Y-10999476D01*
X8757381Y-10999476D01*
X8738333Y-10989952D01*
X8728810Y-10980429D01*
X8719286Y-10961381D01*
X8709762Y-10923286D01*
X8709762Y-10875667D01*
X8719286Y-10837571D01*
X8728810Y-10818524D01*
X8738333Y-10809000D01*
X8757381Y-10799476D01*
X8909762Y-10999476D02*
X8909762Y-10866143D01*
X8909762Y-10885190D02*
X8919286Y-10875667D01*
X8938333Y-10866143D01*
X8966905Y-10866143D01*
X8985952Y-10875667D01*
X8995476Y-10894714D01*
X8995476Y-10999476D01*
X8995476Y-10894714D02*
X9005000Y-10875667D01*
X9024048Y-10866143D01*
X9052619Y-10866143D01*
X9071667Y-10875667D01*
X9081190Y-10894714D01*
X9081190Y-10999476D01*
X9176429Y-10999476D02*
X9176429Y-10866143D01*
X9176429Y-10885190D02*
X9185952Y-10875667D01*
X9205000Y-10866143D01*
X9233571Y-10866143D01*
X9252619Y-10875667D01*
X9262143Y-10894714D01*
X9262143Y-10999476D01*
X9262143Y-10894714D02*
X9271667Y-10875667D01*
X9290714Y-10866143D01*
X9319286Y-10866143D01*
X9338333Y-10875667D01*
X9347857Y-10894714D01*
X9347857Y-10999476D01*
X9738333Y-10789952D02*
X9566905Y-11047095D01*
X9995476Y-10799476D02*
X10014524Y-10799476D01*
X10033571Y-10809000D01*
X10043095Y-10818524D01*
X10052619Y-10837571D01*
X10062143Y-10875667D01*
X10062143Y-10923286D01*
X10052619Y-10961381D01*
X10043095Y-10980429D01*
X10033571Y-10989952D01*
X10014524Y-10999476D01*
X9995476Y-10999476D01*
X9976429Y-10989952D01*
X9966905Y-10980429D01*
X9957381Y-10961381D01*
X9947857Y-10923286D01*
X9947857Y-10875667D01*
X9957381Y-10837571D01*
X9966905Y-10818524D01*
X9976429Y-10809000D01*
X9995476Y-10799476D01*
X10147857Y-10980429D02*
X10157381Y-10989952D01*
X10147857Y-10999476D01*
X10138333Y-10989952D01*
X10147857Y-10980429D01*
X10147857Y-10999476D01*
X10281190Y-10799476D02*
X10300238Y-10799476D01*
X10319286Y-10809000D01*
X10328810Y-10818524D01*
X10338333Y-10837571D01*
X10347857Y-10875667D01*
X10347857Y-10923286D01*
X10338333Y-10961381D01*
X10328810Y-10980429D01*
X10319286Y-10989952D01*
X10300238Y-10999476D01*
X10281190Y-10999476D01*
X10262143Y-10989952D01*
X10252619Y-10980429D01*
X10243095Y-10961381D01*
X10233571Y-10923286D01*
X10233571Y-10875667D01*
X10243095Y-10837571D01*
X10252619Y-10818524D01*
X10262143Y-10809000D01*
X10281190Y-10799476D01*
X10424048Y-10818524D02*
X10433571Y-10809000D01*
X10452619Y-10799476D01*
X10500238Y-10799476D01*
X10519286Y-10809000D01*
X10528810Y-10818524D01*
X10538333Y-10837571D01*
X10538333Y-10856619D01*
X10528810Y-10885190D01*
X10414524Y-10999476D01*
X10538333Y-10999476D01*
X10605000Y-10799476D02*
X10728810Y-10799476D01*
X10662143Y-10875667D01*
X10690714Y-10875667D01*
X10709762Y-10885190D01*
X10719286Y-10894714D01*
X10728810Y-10913762D01*
X10728810Y-10961381D01*
X10719286Y-10980429D01*
X10709762Y-10989952D01*
X10690714Y-10999476D01*
X10633571Y-10999476D01*
X10614524Y-10989952D01*
X10605000Y-10980429D01*
X10900238Y-10799476D02*
X10862143Y-10799476D01*
X10843095Y-10809000D01*
X10833571Y-10818524D01*
X10814524Y-10847095D01*
X10805000Y-10885190D01*
X10805000Y-10961381D01*
X10814524Y-10980429D01*
X10824048Y-10989952D01*
X10843095Y-10999476D01*
X10881190Y-10999476D01*
X10900238Y-10989952D01*
X10909762Y-10980429D01*
X10919286Y-10961381D01*
X10919286Y-10913762D01*
X10909762Y-10894714D01*
X10900238Y-10885190D01*
X10881190Y-10875667D01*
X10843095Y-10875667D01*
X10824048Y-10885190D01*
X10814524Y-10894714D01*
X10805000Y-10913762D01*
X10995476Y-10799476D02*
X10995476Y-10837571D01*
X11071667Y-10799476D02*
X11071667Y-10837571D01*
X11366905Y-11075667D02*
X11357381Y-11066143D01*
X11338333Y-11037571D01*
X11328809Y-11018524D01*
X11319286Y-10989952D01*
X11309762Y-10942333D01*
X11309762Y-10904238D01*
X11319286Y-10856619D01*
X11328809Y-10828048D01*
X11338333Y-10809000D01*
X11357381Y-10780429D01*
X11366905Y-10770905D01*
X11481190Y-10799476D02*
X11500238Y-10799476D01*
X11519286Y-10809000D01*
X11528809Y-10818524D01*
X11538333Y-10837571D01*
X11547857Y-10875667D01*
X11547857Y-10923286D01*
X11538333Y-10961381D01*
X11528809Y-10980429D01*
X11519286Y-10989952D01*
X11500238Y-10999476D01*
X11481190Y-10999476D01*
X11462143Y-10989952D01*
X11452619Y-10980429D01*
X11443095Y-10961381D01*
X11433571Y-10923286D01*
X11433571Y-10875667D01*
X11443095Y-10837571D01*
X11452619Y-10818524D01*
X11462143Y-10809000D01*
X11481190Y-10799476D01*
X11785952Y-10999476D02*
X11785952Y-10799476D01*
X11871667Y-10999476D02*
X11871667Y-10894714D01*
X11862143Y-10875667D01*
X11843095Y-10866143D01*
X11814524Y-10866143D01*
X11795476Y-10875667D01*
X11785952Y-10885190D01*
X11995476Y-10999476D02*
X11976428Y-10989952D01*
X11966905Y-10980429D01*
X11957381Y-10961381D01*
X11957381Y-10904238D01*
X11966905Y-10885190D01*
X11976428Y-10875667D01*
X11995476Y-10866143D01*
X12024048Y-10866143D01*
X12043095Y-10875667D01*
X12052619Y-10885190D01*
X12062143Y-10904238D01*
X12062143Y-10961381D01*
X12052619Y-10980429D01*
X12043095Y-10989952D01*
X12024048Y-10999476D01*
X11995476Y-10999476D01*
X12176428Y-10999476D02*
X12157381Y-10989952D01*
X12147857Y-10970905D01*
X12147857Y-10799476D01*
X12328809Y-10989952D02*
X12309762Y-10999476D01*
X12271667Y-10999476D01*
X12252619Y-10989952D01*
X12243095Y-10970905D01*
X12243095Y-10894714D01*
X12252619Y-10875667D01*
X12271667Y-10866143D01*
X12309762Y-10866143D01*
X12328809Y-10875667D01*
X12338333Y-10894714D01*
X12338333Y-10913762D01*
X12243095Y-10932810D01*
X12414524Y-10989952D02*
X12433571Y-10999476D01*
X12471667Y-10999476D01*
X12490714Y-10989952D01*
X12500238Y-10970905D01*
X12500238Y-10961381D01*
X12490714Y-10942333D01*
X12471667Y-10932810D01*
X12443095Y-10932810D01*
X12424048Y-10923286D01*
X12414524Y-10904238D01*
X12414524Y-10894714D01*
X12424048Y-10875667D01*
X12443095Y-10866143D01*
X12471667Y-10866143D01*
X12490714Y-10875667D01*
X12738333Y-10923286D02*
X12890714Y-10923286D01*
X12814524Y-10999476D02*
X12814524Y-10847095D01*
X13224048Y-10866143D02*
X13224048Y-10999476D01*
X13176428Y-10789952D02*
X13128809Y-10932810D01*
X13252619Y-10932810D01*
X13471667Y-10989952D02*
X13490714Y-10999476D01*
X13528809Y-10999476D01*
X13547857Y-10989952D01*
X13557381Y-10970905D01*
X13557381Y-10961381D01*
X13547857Y-10942333D01*
X13528809Y-10932810D01*
X13500238Y-10932810D01*
X13481190Y-10923286D01*
X13471667Y-10904238D01*
X13471667Y-10894714D01*
X13481190Y-10875667D01*
X13500238Y-10866143D01*
X13528809Y-10866143D01*
X13547857Y-10875667D01*
X13671667Y-10999476D02*
X13652619Y-10989952D01*
X13643095Y-10970905D01*
X13643095Y-10799476D01*
X13776428Y-10999476D02*
X13757381Y-10989952D01*
X13747857Y-10980429D01*
X13738333Y-10961381D01*
X13738333Y-10904238D01*
X13747857Y-10885190D01*
X13757381Y-10875667D01*
X13776428Y-10866143D01*
X13805000Y-10866143D01*
X13824048Y-10875667D01*
X13833571Y-10885190D01*
X13843095Y-10904238D01*
X13843095Y-10961381D01*
X13833571Y-10980429D01*
X13824048Y-10989952D01*
X13805000Y-10999476D01*
X13776428Y-10999476D01*
X13900238Y-10866143D02*
X13976428Y-10866143D01*
X13928809Y-10799476D02*
X13928809Y-10970905D01*
X13938333Y-10989952D01*
X13957381Y-10999476D01*
X13976428Y-10999476D01*
X14033571Y-10989952D02*
X14052619Y-10999476D01*
X14090714Y-10999476D01*
X14109762Y-10989952D01*
X14119286Y-10970905D01*
X14119286Y-10961381D01*
X14109762Y-10942333D01*
X14090714Y-10932810D01*
X14062143Y-10932810D01*
X14043095Y-10923286D01*
X14033571Y-10904238D01*
X14033571Y-10894714D01*
X14043095Y-10875667D01*
X14062143Y-10866143D01*
X14090714Y-10866143D01*
X14109762Y-10875667D01*
X14185952Y-11075667D02*
X14195476Y-11066143D01*
X14214524Y-11037571D01*
X14224048Y-11018524D01*
X14233571Y-10989952D01*
X14243095Y-10942333D01*
X14243095Y-10904238D01*
X14233571Y-10856619D01*
X14224048Y-10828048D01*
X14214524Y-10809000D01*
X14195476Y-10780429D01*
X14185952Y-10770905D01*
D10*
X7745000Y-11123000D02*
X7745000Y-11223000D01*
X7695000Y-11173000D02*
X7795000Y-11173000D01*
D11*
X8157381Y-11263476D02*
X8043095Y-11263476D01*
X8100238Y-11263476D02*
X8100238Y-11063476D01*
X8081190Y-11092048D01*
X8062143Y-11111095D01*
X8043095Y-11120619D01*
X8243095Y-11244428D02*
X8252619Y-11253952D01*
X8243095Y-11263476D01*
X8233571Y-11253952D01*
X8243095Y-11244428D01*
X8243095Y-11263476D01*
X8376428Y-11063476D02*
X8395476Y-11063476D01*
X8414524Y-11073000D01*
X8424048Y-11082524D01*
X8433571Y-11101571D01*
X8443095Y-11139667D01*
X8443095Y-11187286D01*
X8433571Y-11225381D01*
X8424048Y-11244428D01*
X8414524Y-11253952D01*
X8395476Y-11263476D01*
X8376428Y-11263476D01*
X8357381Y-11253952D01*
X8347857Y-11244428D01*
X8338333Y-11225381D01*
X8328809Y-11187286D01*
X8328809Y-11139667D01*
X8338333Y-11101571D01*
X8347857Y-11082524D01*
X8357381Y-11073000D01*
X8376428Y-11063476D01*
X8566905Y-11063476D02*
X8585952Y-11063476D01*
X8605000Y-11073000D01*
X8614524Y-11082524D01*
X8624048Y-11101571D01*
X8633571Y-11139667D01*
X8633571Y-11187286D01*
X8624048Y-11225381D01*
X8614524Y-11244428D01*
X8605000Y-11253952D01*
X8585952Y-11263476D01*
X8566905Y-11263476D01*
X8547857Y-11253952D01*
X8538333Y-11244428D01*
X8528810Y-11225381D01*
X8519286Y-11187286D01*
X8519286Y-11139667D01*
X8528810Y-11101571D01*
X8538333Y-11082524D01*
X8547857Y-11073000D01*
X8566905Y-11063476D01*
X8757381Y-11063476D02*
X8776429Y-11063476D01*
X8795476Y-11073000D01*
X8805000Y-11082524D01*
X8814524Y-11101571D01*
X8824048Y-11139667D01*
X8824048Y-11187286D01*
X8814524Y-11225381D01*
X8805000Y-11244428D01*
X8795476Y-11253952D01*
X8776429Y-11263476D01*
X8757381Y-11263476D01*
X8738333Y-11253952D01*
X8728810Y-11244428D01*
X8719286Y-11225381D01*
X8709762Y-11187286D01*
X8709762Y-11139667D01*
X8719286Y-11101571D01*
X8728810Y-11082524D01*
X8738333Y-11073000D01*
X8757381Y-11063476D01*
X8909762Y-11263476D02*
X8909762Y-11130143D01*
X8909762Y-11149190D02*
X8919286Y-11139667D01*
X8938333Y-11130143D01*
X8966905Y-11130143D01*
X8985952Y-11139667D01*
X8995476Y-11158714D01*
X8995476Y-11263476D01*
X8995476Y-11158714D02*
X9005000Y-11139667D01*
X9024048Y-11130143D01*
X9052619Y-11130143D01*
X9071667Y-11139667D01*
X9081190Y-11158714D01*
X9081190Y-11263476D01*
X9176429Y-11263476D02*
X9176429Y-11130143D01*
X9176429Y-11149190D02*
X9185952Y-11139667D01*
X9205000Y-11130143D01*
X9233571Y-11130143D01*
X9252619Y-11139667D01*
X9262143Y-11158714D01*
X9262143Y-11263476D01*
X9262143Y-11158714D02*
X9271667Y-11139667D01*
X9290714Y-11130143D01*
X9319286Y-11130143D01*
X9338333Y-11139667D01*
X9347857Y-11158714D01*
X9347857Y-11263476D01*
X9738333Y-11053952D02*
X9566905Y-11311095D01*
X9995476Y-11063476D02*
X10014524Y-11063476D01*
X10033571Y-11073000D01*
X10043095Y-11082524D01*
X10052619Y-11101571D01*
X10062143Y-11139667D01*
X10062143Y-11187286D01*
X10052619Y-11225381D01*
X10043095Y-11244428D01*
X10033571Y-11253952D01*
X10014524Y-11263476D01*
X9995476Y-11263476D01*
X9976429Y-11253952D01*
X9966905Y-11244428D01*
X9957381Y-11225381D01*
X9947857Y-11187286D01*
X9947857Y-11139667D01*
X9957381Y-11101571D01*
X9966905Y-11082524D01*
X9976429Y-11073000D01*
X9995476Y-11063476D01*
X10147857Y-11244428D02*
X10157381Y-11253952D01*
X10147857Y-11263476D01*
X10138333Y-11253952D01*
X10147857Y-11244428D01*
X10147857Y-11263476D01*
X10281190Y-11063476D02*
X10300238Y-11063476D01*
X10319286Y-11073000D01*
X10328810Y-11082524D01*
X10338333Y-11101571D01*
X10347857Y-11139667D01*
X10347857Y-11187286D01*
X10338333Y-11225381D01*
X10328810Y-11244428D01*
X10319286Y-11253952D01*
X10300238Y-11263476D01*
X10281190Y-11263476D01*
X10262143Y-11253952D01*
X10252619Y-11244428D01*
X10243095Y-11225381D01*
X10233571Y-11187286D01*
X10233571Y-11139667D01*
X10243095Y-11101571D01*
X10252619Y-11082524D01*
X10262143Y-11073000D01*
X10281190Y-11063476D01*
X10414524Y-11063476D02*
X10538333Y-11063476D01*
X10471667Y-11139667D01*
X10500238Y-11139667D01*
X10519286Y-11149190D01*
X10528810Y-11158714D01*
X10538333Y-11177762D01*
X10538333Y-11225381D01*
X10528810Y-11244428D01*
X10519286Y-11253952D01*
X10500238Y-11263476D01*
X10443095Y-11263476D01*
X10424048Y-11253952D01*
X10414524Y-11244428D01*
X10633571Y-11263476D02*
X10671667Y-11263476D01*
X10690714Y-11253952D01*
X10700238Y-11244428D01*
X10719286Y-11215857D01*
X10728810Y-11177762D01*
X10728810Y-11101571D01*
X10719286Y-11082524D01*
X10709762Y-11073000D01*
X10690714Y-11063476D01*
X10652619Y-11063476D01*
X10633571Y-11073000D01*
X10624048Y-11082524D01*
X10614524Y-11101571D01*
X10614524Y-11149190D01*
X10624048Y-11168238D01*
X10633571Y-11177762D01*
X10652619Y-11187286D01*
X10690714Y-11187286D01*
X10709762Y-11177762D01*
X10719286Y-11168238D01*
X10728810Y-11149190D01*
X10900238Y-11130143D02*
X10900238Y-11263476D01*
X10852619Y-11053952D02*
X10805000Y-11196809D01*
X10928810Y-11196809D01*
X10995476Y-11063476D02*
X10995476Y-11101571D01*
X11071667Y-11063476D02*
X11071667Y-11101571D01*
X11366905Y-11339667D02*
X11357381Y-11330143D01*
X11338333Y-11301571D01*
X11328809Y-11282524D01*
X11319286Y-11253952D01*
X11309762Y-11206333D01*
X11309762Y-11168238D01*
X11319286Y-11120619D01*
X11328809Y-11092048D01*
X11338333Y-11073000D01*
X11357381Y-11044429D01*
X11366905Y-11034905D01*
X11547857Y-11263476D02*
X11433571Y-11263476D01*
X11490714Y-11263476D02*
X11490714Y-11063476D01*
X11471667Y-11092048D01*
X11452619Y-11111095D01*
X11433571Y-11120619D01*
X11624048Y-11082524D02*
X11633571Y-11073000D01*
X11652619Y-11063476D01*
X11700238Y-11063476D01*
X11719286Y-11073000D01*
X11728809Y-11082524D01*
X11738333Y-11101571D01*
X11738333Y-11120619D01*
X11728809Y-11149190D01*
X11614524Y-11263476D01*
X11738333Y-11263476D01*
X11976428Y-11263476D02*
X11976428Y-11063476D01*
X12062143Y-11263476D02*
X12062143Y-11158714D01*
X12052619Y-11139667D01*
X12033571Y-11130143D01*
X12005000Y-11130143D01*
X11985952Y-11139667D01*
X11976428Y-11149190D01*
X12185952Y-11263476D02*
X12166905Y-11253952D01*
X12157381Y-11244428D01*
X12147857Y-11225381D01*
X12147857Y-11168238D01*
X12157381Y-11149190D01*
X12166905Y-11139667D01*
X12185952Y-11130143D01*
X12214524Y-11130143D01*
X12233571Y-11139667D01*
X12243095Y-11149190D01*
X12252619Y-11168238D01*
X12252619Y-11225381D01*
X12243095Y-11244428D01*
X12233571Y-11253952D01*
X12214524Y-11263476D01*
X12185952Y-11263476D01*
X12366905Y-11263476D02*
X12347857Y-11253952D01*
X12338333Y-11234905D01*
X12338333Y-11063476D01*
X12519286Y-11253952D02*
X12500238Y-11263476D01*
X12462143Y-11263476D01*
X12443095Y-11253952D01*
X12433571Y-11234905D01*
X12433571Y-11158714D01*
X12443095Y-11139667D01*
X12462143Y-11130143D01*
X12500238Y-11130143D01*
X12519286Y-11139667D01*
X12528809Y-11158714D01*
X12528809Y-11177762D01*
X12433571Y-11196809D01*
X12605000Y-11253952D02*
X12624048Y-11263476D01*
X12662143Y-11263476D01*
X12681190Y-11253952D01*
X12690714Y-11234905D01*
X12690714Y-11225381D01*
X12681190Y-11206333D01*
X12662143Y-11196809D01*
X12633571Y-11196809D01*
X12614524Y-11187286D01*
X12605000Y-11168238D01*
X12605000Y-11158714D01*
X12614524Y-11139667D01*
X12633571Y-11130143D01*
X12662143Y-11130143D01*
X12681190Y-11139667D01*
X12757381Y-11339667D02*
X12766905Y-11330143D01*
X12785952Y-11301571D01*
X12795476Y-11282524D01*
X12805000Y-11253952D01*
X12814524Y-11206333D01*
X12814524Y-11168238D01*
X12805000Y-11120619D01*
X12795476Y-11092048D01*
X12785952Y-11073000D01*
X12766905Y-11044429D01*
X12757381Y-11034905D01*
M02*
