%TF.GenerationSoftware,KiCad,Pcbnew,6.0.9+dfsg-1*%
%TF.CreationDate,2022-12-26T23:17:40+00:00*%
%TF.ProjectId,PMOD-USB-Device,504d4f44-2d55-4534-922d-446576696365,1*%
%TF.SameCoordinates,Original*%
%TF.FileFunction,Legend,Bot*%
%TF.FilePolarity,Positive*%
%FSLAX46Y46*%
G04 Gerber Fmt 4.6, Leading zero omitted, Abs format (unit mm)*
G04 Created by KiCad (PCBNEW 6.0.9+dfsg-1) date 2022-12-26 23:17:40*
%MOMM*%
%LPD*%
G01*
G04 APERTURE LIST*
%ADD10C,0.125000*%
%ADD11C,0.150000*%
%ADD12R,1.700000X1.700000*%
%ADD13C,1.700000*%
%ADD14O,1.700000X1.700000*%
%ADD15C,0.650000*%
%ADD16O,1.600000X1.000000*%
%ADD17O,2.100000X1.000000*%
G04 APERTURE END LIST*
D10*
X94597321Y-82570535D02*
X94525892Y-82570535D01*
X94454464Y-82606250D01*
X94418750Y-82641964D01*
X94383035Y-82713392D01*
X94347321Y-82856250D01*
X94347321Y-83034821D01*
X94383035Y-83177678D01*
X94418750Y-83249107D01*
X94454464Y-83284821D01*
X94525892Y-83320535D01*
X94597321Y-83320535D01*
X94668750Y-83284821D01*
X94704464Y-83249107D01*
X94740178Y-83177678D01*
X94775892Y-83034821D01*
X94775892Y-82856250D01*
X94740178Y-82713392D01*
X94704464Y-82641964D01*
X94668750Y-82606250D01*
X94597321Y-82570535D01*
X93704464Y-82570535D02*
X93847321Y-82570535D01*
X93918750Y-82606250D01*
X93954464Y-82641964D01*
X94025892Y-82749107D01*
X94061607Y-82891964D01*
X94061607Y-83177678D01*
X94025892Y-83249107D01*
X93990178Y-83284821D01*
X93918750Y-83320535D01*
X93775892Y-83320535D01*
X93704464Y-83284821D01*
X93668750Y-83249107D01*
X93633035Y-83177678D01*
X93633035Y-82999107D01*
X93668750Y-82927678D01*
X93704464Y-82891964D01*
X93775892Y-82856250D01*
X93918750Y-82856250D01*
X93990178Y-82891964D01*
X94025892Y-82927678D01*
X94061607Y-82999107D01*
X92811607Y-83320535D02*
X92418750Y-82820535D01*
X92811607Y-82820535D02*
X92418750Y-83320535D01*
X94597321Y-83778035D02*
X94525892Y-83778035D01*
X94454464Y-83813750D01*
X94418750Y-83849464D01*
X94383035Y-83920892D01*
X94347321Y-84063750D01*
X94347321Y-84242321D01*
X94383035Y-84385178D01*
X94418750Y-84456607D01*
X94454464Y-84492321D01*
X94525892Y-84528035D01*
X94597321Y-84528035D01*
X94668750Y-84492321D01*
X94704464Y-84456607D01*
X94740178Y-84385178D01*
X94775892Y-84242321D01*
X94775892Y-84063750D01*
X94740178Y-83920892D01*
X94704464Y-83849464D01*
X94668750Y-83813750D01*
X94597321Y-83778035D01*
X93668750Y-83778035D02*
X94025892Y-83778035D01*
X94061607Y-84135178D01*
X94025892Y-84099464D01*
X93954464Y-84063750D01*
X93775892Y-84063750D01*
X93704464Y-84099464D01*
X93668750Y-84135178D01*
X93633035Y-84206607D01*
X93633035Y-84385178D01*
X93668750Y-84456607D01*
X93704464Y-84492321D01*
X93775892Y-84528035D01*
X93954464Y-84528035D01*
X94025892Y-84492321D01*
X94061607Y-84456607D01*
X92347321Y-83813750D02*
X92418750Y-83778035D01*
X92525892Y-83778035D01*
X92633035Y-83813750D01*
X92704464Y-83885178D01*
X92740178Y-83956607D01*
X92775892Y-84099464D01*
X92775892Y-84206607D01*
X92740178Y-84349464D01*
X92704464Y-84420892D01*
X92633035Y-84492321D01*
X92525892Y-84528035D01*
X92454464Y-84528035D01*
X92347321Y-84492321D01*
X92311607Y-84456607D01*
X92311607Y-84206607D01*
X92454464Y-84206607D01*
X91990178Y-84528035D02*
X91990178Y-83778035D01*
X91561607Y-84528035D01*
X91561607Y-83778035D01*
X91204464Y-84528035D02*
X91204464Y-83778035D01*
X91025892Y-83778035D01*
X90918750Y-83813750D01*
X90847321Y-83885178D01*
X90811607Y-83956607D01*
X90775892Y-84099464D01*
X90775892Y-84206607D01*
X90811607Y-84349464D01*
X90847321Y-84420892D01*
X90918750Y-84492321D01*
X91025892Y-84528035D01*
X91204464Y-84528035D01*
X94597321Y-84985535D02*
X94525892Y-84985535D01*
X94454464Y-85021250D01*
X94418750Y-85056964D01*
X94383035Y-85128392D01*
X94347321Y-85271250D01*
X94347321Y-85449821D01*
X94383035Y-85592678D01*
X94418750Y-85664107D01*
X94454464Y-85699821D01*
X94525892Y-85735535D01*
X94597321Y-85735535D01*
X94668750Y-85699821D01*
X94704464Y-85664107D01*
X94740178Y-85592678D01*
X94775892Y-85449821D01*
X94775892Y-85271250D01*
X94740178Y-85128392D01*
X94704464Y-85056964D01*
X94668750Y-85021250D01*
X94597321Y-84985535D01*
X93704464Y-85235535D02*
X93704464Y-85735535D01*
X93883035Y-84949821D02*
X94061607Y-85485535D01*
X93597321Y-85485535D01*
X92740178Y-84985535D02*
X92740178Y-85592678D01*
X92704464Y-85664107D01*
X92668750Y-85699821D01*
X92597321Y-85735535D01*
X92454464Y-85735535D01*
X92383035Y-85699821D01*
X92347321Y-85664107D01*
X92311607Y-85592678D01*
X92311607Y-84985535D01*
X91990178Y-85699821D02*
X91883035Y-85735535D01*
X91704464Y-85735535D01*
X91633035Y-85699821D01*
X91597321Y-85664107D01*
X91561607Y-85592678D01*
X91561607Y-85521250D01*
X91597321Y-85449821D01*
X91633035Y-85414107D01*
X91704464Y-85378392D01*
X91847321Y-85342678D01*
X91918750Y-85306964D01*
X91954464Y-85271250D01*
X91990178Y-85199821D01*
X91990178Y-85128392D01*
X91954464Y-85056964D01*
X91918750Y-85021250D01*
X91847321Y-84985535D01*
X91668750Y-84985535D01*
X91561607Y-85021250D01*
X90990178Y-85342678D02*
X90883035Y-85378392D01*
X90847321Y-85414107D01*
X90811607Y-85485535D01*
X90811607Y-85592678D01*
X90847321Y-85664107D01*
X90883035Y-85699821D01*
X90954464Y-85735535D01*
X91240178Y-85735535D01*
X91240178Y-84985535D01*
X90990178Y-84985535D01*
X90918750Y-85021250D01*
X90883035Y-85056964D01*
X90847321Y-85128392D01*
X90847321Y-85199821D01*
X90883035Y-85271250D01*
X90918750Y-85306964D01*
X90990178Y-85342678D01*
X91240178Y-85342678D01*
X89918750Y-85735535D02*
X89918750Y-84985535D01*
X89633035Y-84985535D01*
X89561607Y-85021250D01*
X89525892Y-85056964D01*
X89490178Y-85128392D01*
X89490178Y-85235535D01*
X89525892Y-85306964D01*
X89561607Y-85342678D01*
X89633035Y-85378392D01*
X89918750Y-85378392D01*
X89168750Y-84985535D02*
X89168750Y-85592678D01*
X89133035Y-85664107D01*
X89097321Y-85699821D01*
X89025892Y-85735535D01*
X88883035Y-85735535D01*
X88811607Y-85699821D01*
X88775892Y-85664107D01*
X88740178Y-85592678D01*
X88740178Y-84985535D01*
X94597321Y-86193035D02*
X94525892Y-86193035D01*
X94454464Y-86228750D01*
X94418750Y-86264464D01*
X94383035Y-86335892D01*
X94347321Y-86478750D01*
X94347321Y-86657321D01*
X94383035Y-86800178D01*
X94418750Y-86871607D01*
X94454464Y-86907321D01*
X94525892Y-86943035D01*
X94597321Y-86943035D01*
X94668750Y-86907321D01*
X94704464Y-86871607D01*
X94740178Y-86800178D01*
X94775892Y-86657321D01*
X94775892Y-86478750D01*
X94740178Y-86335892D01*
X94704464Y-86264464D01*
X94668750Y-86228750D01*
X94597321Y-86193035D01*
X94097321Y-86193035D02*
X93633035Y-86193035D01*
X93883035Y-86478750D01*
X93775892Y-86478750D01*
X93704464Y-86514464D01*
X93668750Y-86550178D01*
X93633035Y-86621607D01*
X93633035Y-86800178D01*
X93668750Y-86871607D01*
X93704464Y-86907321D01*
X93775892Y-86943035D01*
X93990178Y-86943035D01*
X94061607Y-86907321D01*
X94097321Y-86871607D01*
X92740178Y-86193035D02*
X92740178Y-86800178D01*
X92704464Y-86871607D01*
X92668750Y-86907321D01*
X92597321Y-86943035D01*
X92454464Y-86943035D01*
X92383035Y-86907321D01*
X92347321Y-86871607D01*
X92311607Y-86800178D01*
X92311607Y-86193035D01*
X91990178Y-86907321D02*
X91883035Y-86943035D01*
X91704464Y-86943035D01*
X91633035Y-86907321D01*
X91597321Y-86871607D01*
X91561607Y-86800178D01*
X91561607Y-86728750D01*
X91597321Y-86657321D01*
X91633035Y-86621607D01*
X91704464Y-86585892D01*
X91847321Y-86550178D01*
X91918750Y-86514464D01*
X91954464Y-86478750D01*
X91990178Y-86407321D01*
X91990178Y-86335892D01*
X91954464Y-86264464D01*
X91918750Y-86228750D01*
X91847321Y-86193035D01*
X91668750Y-86193035D01*
X91561607Y-86228750D01*
X90990178Y-86550178D02*
X90883035Y-86585892D01*
X90847321Y-86621607D01*
X90811607Y-86693035D01*
X90811607Y-86800178D01*
X90847321Y-86871607D01*
X90883035Y-86907321D01*
X90954464Y-86943035D01*
X91240178Y-86943035D01*
X91240178Y-86193035D01*
X90990178Y-86193035D01*
X90918750Y-86228750D01*
X90883035Y-86264464D01*
X90847321Y-86335892D01*
X90847321Y-86407321D01*
X90883035Y-86478750D01*
X90918750Y-86514464D01*
X90990178Y-86550178D01*
X91240178Y-86550178D01*
X89918750Y-86943035D02*
X89918750Y-86193035D01*
X89740178Y-86193035D01*
X89633035Y-86228750D01*
X89561607Y-86300178D01*
X89525892Y-86371607D01*
X89490178Y-86514464D01*
X89490178Y-86621607D01*
X89525892Y-86764464D01*
X89561607Y-86835892D01*
X89633035Y-86907321D01*
X89740178Y-86943035D01*
X89918750Y-86943035D01*
X89168750Y-86943035D02*
X89168750Y-86193035D01*
X88740178Y-86943035D01*
X88740178Y-86193035D01*
X94597321Y-87400535D02*
X94525892Y-87400535D01*
X94454464Y-87436250D01*
X94418750Y-87471964D01*
X94383035Y-87543392D01*
X94347321Y-87686250D01*
X94347321Y-87864821D01*
X94383035Y-88007678D01*
X94418750Y-88079107D01*
X94454464Y-88114821D01*
X94525892Y-88150535D01*
X94597321Y-88150535D01*
X94668750Y-88114821D01*
X94704464Y-88079107D01*
X94740178Y-88007678D01*
X94775892Y-87864821D01*
X94775892Y-87686250D01*
X94740178Y-87543392D01*
X94704464Y-87471964D01*
X94668750Y-87436250D01*
X94597321Y-87400535D01*
X94061607Y-87471964D02*
X94025892Y-87436250D01*
X93954464Y-87400535D01*
X93775892Y-87400535D01*
X93704464Y-87436250D01*
X93668750Y-87471964D01*
X93633035Y-87543392D01*
X93633035Y-87614821D01*
X93668750Y-87721964D01*
X94097321Y-88150535D01*
X93633035Y-88150535D01*
X92740178Y-87400535D02*
X92740178Y-88007678D01*
X92704464Y-88079107D01*
X92668750Y-88114821D01*
X92597321Y-88150535D01*
X92454464Y-88150535D01*
X92383035Y-88114821D01*
X92347321Y-88079107D01*
X92311607Y-88007678D01*
X92311607Y-87400535D01*
X91990178Y-88114821D02*
X91883035Y-88150535D01*
X91704464Y-88150535D01*
X91633035Y-88114821D01*
X91597321Y-88079107D01*
X91561607Y-88007678D01*
X91561607Y-87936250D01*
X91597321Y-87864821D01*
X91633035Y-87829107D01*
X91704464Y-87793392D01*
X91847321Y-87757678D01*
X91918750Y-87721964D01*
X91954464Y-87686250D01*
X91990178Y-87614821D01*
X91990178Y-87543392D01*
X91954464Y-87471964D01*
X91918750Y-87436250D01*
X91847321Y-87400535D01*
X91668750Y-87400535D01*
X91561607Y-87436250D01*
X90990178Y-87757678D02*
X90883035Y-87793392D01*
X90847321Y-87829107D01*
X90811607Y-87900535D01*
X90811607Y-88007678D01*
X90847321Y-88079107D01*
X90883035Y-88114821D01*
X90954464Y-88150535D01*
X91240178Y-88150535D01*
X91240178Y-87400535D01*
X90990178Y-87400535D01*
X90918750Y-87436250D01*
X90883035Y-87471964D01*
X90847321Y-87543392D01*
X90847321Y-87614821D01*
X90883035Y-87686250D01*
X90918750Y-87721964D01*
X90990178Y-87757678D01*
X91240178Y-87757678D01*
X89918750Y-88150535D02*
X89918750Y-87400535D01*
X89740178Y-87400535D01*
X89633035Y-87436250D01*
X89561607Y-87507678D01*
X89525892Y-87579107D01*
X89490178Y-87721964D01*
X89490178Y-87829107D01*
X89525892Y-87971964D01*
X89561607Y-88043392D01*
X89633035Y-88114821D01*
X89740178Y-88150535D01*
X89918750Y-88150535D01*
X89168750Y-88150535D02*
X89168750Y-87400535D01*
X88883035Y-87400535D01*
X88811607Y-87436250D01*
X88775892Y-87471964D01*
X88740178Y-87543392D01*
X88740178Y-87650535D01*
X88775892Y-87721964D01*
X88811607Y-87757678D01*
X88883035Y-87793392D01*
X89168750Y-87793392D01*
X94597321Y-88608035D02*
X94525892Y-88608035D01*
X94454464Y-88643750D01*
X94418750Y-88679464D01*
X94383035Y-88750892D01*
X94347321Y-88893750D01*
X94347321Y-89072321D01*
X94383035Y-89215178D01*
X94418750Y-89286607D01*
X94454464Y-89322321D01*
X94525892Y-89358035D01*
X94597321Y-89358035D01*
X94668750Y-89322321D01*
X94704464Y-89286607D01*
X94740178Y-89215178D01*
X94775892Y-89072321D01*
X94775892Y-88893750D01*
X94740178Y-88750892D01*
X94704464Y-88679464D01*
X94668750Y-88643750D01*
X94597321Y-88608035D01*
X93633035Y-89358035D02*
X94061607Y-89358035D01*
X93847321Y-89358035D02*
X93847321Y-88608035D01*
X93918750Y-88715178D01*
X93990178Y-88786607D01*
X94061607Y-88822321D01*
X92811607Y-89358035D02*
X92418750Y-88858035D01*
X92811607Y-88858035D02*
X92418750Y-89358035D01*
D11*
X97982142Y-82570535D02*
X97910714Y-82570535D01*
X97839285Y-82606250D01*
X97803571Y-82641964D01*
X97767857Y-82713392D01*
X97732142Y-82856250D01*
X97732142Y-83034821D01*
X97767857Y-83177678D01*
X97803571Y-83249107D01*
X97839285Y-83284821D01*
X97910714Y-83320535D01*
X97982142Y-83320535D01*
X98053571Y-83284821D01*
X98089285Y-83249107D01*
X98125000Y-83177678D01*
X98160714Y-83034821D01*
X98160714Y-82856250D01*
X98125000Y-82713392D01*
X98089285Y-82641964D01*
X98053571Y-82606250D01*
X97982142Y-82570535D01*
X97482142Y-82570535D02*
X96982142Y-82570535D01*
X97303571Y-83320535D01*
X96196428Y-83320535D02*
X95803571Y-82820535D01*
X96196428Y-82820535D02*
X95803571Y-83320535D01*
X97982142Y-83778035D02*
X97910714Y-83778035D01*
X97839285Y-83813750D01*
X97803571Y-83849464D01*
X97767857Y-83920892D01*
X97732142Y-84063750D01*
X97732142Y-84242321D01*
X97767857Y-84385178D01*
X97803571Y-84456607D01*
X97839285Y-84492321D01*
X97910714Y-84528035D01*
X97982142Y-84528035D01*
X98053571Y-84492321D01*
X98089285Y-84456607D01*
X98125000Y-84385178D01*
X98160714Y-84242321D01*
X98160714Y-84063750D01*
X98125000Y-83920892D01*
X98089285Y-83849464D01*
X98053571Y-83813750D01*
X97982142Y-83778035D01*
X97303571Y-84099464D02*
X97375000Y-84063750D01*
X97410714Y-84028035D01*
X97446428Y-83956607D01*
X97446428Y-83920892D01*
X97410714Y-83849464D01*
X97375000Y-83813750D01*
X97303571Y-83778035D01*
X97160714Y-83778035D01*
X97089285Y-83813750D01*
X97053571Y-83849464D01*
X97017857Y-83920892D01*
X97017857Y-83956607D01*
X97053571Y-84028035D01*
X97089285Y-84063750D01*
X97160714Y-84099464D01*
X97303571Y-84099464D01*
X97375000Y-84135178D01*
X97410714Y-84170892D01*
X97446428Y-84242321D01*
X97446428Y-84385178D01*
X97410714Y-84456607D01*
X97375000Y-84492321D01*
X97303571Y-84528035D01*
X97160714Y-84528035D01*
X97089285Y-84492321D01*
X97053571Y-84456607D01*
X97017857Y-84385178D01*
X97017857Y-84242321D01*
X97053571Y-84170892D01*
X97089285Y-84135178D01*
X97160714Y-84099464D01*
X96196428Y-84528035D02*
X95803571Y-84028035D01*
X96196428Y-84028035D02*
X95803571Y-84528035D01*
X97982142Y-84985535D02*
X97910714Y-84985535D01*
X97839285Y-85021250D01*
X97803571Y-85056964D01*
X97767857Y-85128392D01*
X97732142Y-85271250D01*
X97732142Y-85449821D01*
X97767857Y-85592678D01*
X97803571Y-85664107D01*
X97839285Y-85699821D01*
X97910714Y-85735535D01*
X97982142Y-85735535D01*
X98053571Y-85699821D01*
X98089285Y-85664107D01*
X98125000Y-85592678D01*
X98160714Y-85449821D01*
X98160714Y-85271250D01*
X98125000Y-85128392D01*
X98089285Y-85056964D01*
X98053571Y-85021250D01*
X97982142Y-84985535D01*
X97375000Y-85735535D02*
X97232142Y-85735535D01*
X97160714Y-85699821D01*
X97125000Y-85664107D01*
X97053571Y-85556964D01*
X97017857Y-85414107D01*
X97017857Y-85128392D01*
X97053571Y-85056964D01*
X97089285Y-85021250D01*
X97160714Y-84985535D01*
X97303571Y-84985535D01*
X97375000Y-85021250D01*
X97410714Y-85056964D01*
X97446428Y-85128392D01*
X97446428Y-85306964D01*
X97410714Y-85378392D01*
X97375000Y-85414107D01*
X97303571Y-85449821D01*
X97160714Y-85449821D01*
X97089285Y-85414107D01*
X97053571Y-85378392D01*
X97017857Y-85306964D01*
X96196428Y-85735535D02*
X95803571Y-85235535D01*
X96196428Y-85235535D02*
X95803571Y-85735535D01*
X97732142Y-86943035D02*
X98160714Y-86943035D01*
X97946428Y-86943035D02*
X97946428Y-86193035D01*
X98017857Y-86300178D01*
X98089285Y-86371607D01*
X98160714Y-86407321D01*
X97267857Y-86193035D02*
X97196428Y-86193035D01*
X97125000Y-86228750D01*
X97089285Y-86264464D01*
X97053571Y-86335892D01*
X97017857Y-86478750D01*
X97017857Y-86657321D01*
X97053571Y-86800178D01*
X97089285Y-86871607D01*
X97125000Y-86907321D01*
X97196428Y-86943035D01*
X97267857Y-86943035D01*
X97339285Y-86907321D01*
X97375000Y-86871607D01*
X97410714Y-86800178D01*
X97446428Y-86657321D01*
X97446428Y-86478750D01*
X97410714Y-86335892D01*
X97375000Y-86264464D01*
X97339285Y-86228750D01*
X97267857Y-86193035D01*
X96196428Y-86943035D02*
X95803571Y-86443035D01*
X96196428Y-86443035D02*
X95803571Y-86943035D01*
X97732142Y-88150535D02*
X98160714Y-88150535D01*
X97946428Y-88150535D02*
X97946428Y-87400535D01*
X98017857Y-87507678D01*
X98089285Y-87579107D01*
X98160714Y-87614821D01*
X97017857Y-88150535D02*
X97446428Y-88150535D01*
X97232142Y-88150535D02*
X97232142Y-87400535D01*
X97303571Y-87507678D01*
X97375000Y-87579107D01*
X97446428Y-87614821D01*
X96196428Y-88150535D02*
X95803571Y-87650535D01*
X96196428Y-87650535D02*
X95803571Y-88150535D01*
X97732142Y-89358035D02*
X98160714Y-89358035D01*
X97946428Y-89358035D02*
X97946428Y-88608035D01*
X98017857Y-88715178D01*
X98089285Y-88786607D01*
X98160714Y-88822321D01*
X97446428Y-88679464D02*
X97410714Y-88643750D01*
X97339285Y-88608035D01*
X97160714Y-88608035D01*
X97089285Y-88643750D01*
X97053571Y-88679464D01*
X97017857Y-88750892D01*
X97017857Y-88822321D01*
X97053571Y-88929464D01*
X97482142Y-89358035D01*
X97017857Y-89358035D01*
X96196428Y-89358035D02*
X95803571Y-88858035D01*
X96196428Y-88858035D02*
X95803571Y-89358035D01*
%LPC*%
D12*
%TO.C,J2*%
X100574000Y-97119600D03*
D13*
X100574000Y-94579600D03*
X100574000Y-92039600D03*
X100574000Y-89499600D03*
X100574000Y-86959600D03*
X100574000Y-84419600D03*
D14*
X103114000Y-97119600D03*
D13*
X103114000Y-94579600D03*
X103114000Y-92039600D03*
X103114000Y-89499600D03*
X103114000Y-86959600D03*
X103114000Y-84419600D03*
%TD*%
D15*
%TO.C,J1*%
X83040000Y-96692200D03*
X83040000Y-90912200D03*
D16*
X79390000Y-98122200D03*
X79390000Y-89482200D03*
D17*
X83570000Y-89482200D03*
X83570000Y-98122200D03*
%TD*%
M02*
